<svg id="Layer_1" data-name="Layer 1" xmlns="http://www.w3.org/2000/svg" xmlns:xlink="http://www.w3.org/1999/xlink" viewBox="0 0 1920 1195.11"><defs><style>.cls-1{fill:none;}.cls-2{fill:#282828;}.cls-3{fill:#181818;}.cls-4{fill:url(#New_Pattern_Swatch_1);}</style><pattern id="New_Pattern_Swatch_1" data-name="New Pattern Swatch 1" width="250.56" height="198" patternUnits="userSpaceOnUse" viewBox="0 0 250.56 198"><rect class="cls-1" width="250.56" height="198"/><path class="cls-2" d="M261.22,127.6H259.9a32.45,32.45,0,1,0-64.9,0h-1.33a33.78,33.78,0,0,1,67.55,0Z"/><path class="cls-2" d="M255.7,127.6h-1.32a26.94,26.94,0,0,0-53.87,0h-1.32a28.26,28.26,0,1,1,56.51,0Z"/><path class="cls-2" d="M250.18,127.6h-1.32a21.42,21.42,0,0,0-42.83,0h-1.32a22.74,22.74,0,0,1,45.47,0Z"/><path class="cls-2" d="M244.66,127.6h-1.32a15.9,15.9,0,0,0-31.79,0h-1.32a17.22,17.22,0,0,1,34.43,0Z"/><path class="cls-2" d="M239.15,127.6h-1.33a10.38,10.38,0,0,0-20.75,0h-1.32a11.7,11.7,0,0,1,23.4,0Z"/><path class="cls-2" d="M233.63,127.6H232.3a4.86,4.86,0,0,0-9.71,0h-1.33a6.19,6.19,0,0,1,12.37,0Z"/><path class="cls-2" d="M228.11,160.72h-1.33a32.45,32.45,0,1,0-64.9,0h-1.32a33.78,33.78,0,1,1,67.55,0Z"/><path class="cls-2" d="M222.59,160.72h-1.33a26.93,26.93,0,1,0-53.86,0h-1.32a28.26,28.26,0,0,1,56.51,0Z"/><path class="cls-2" d="M217.07,160.72h-1.32a21.42,21.42,0,1,0-42.83,0H171.6a22.74,22.74,0,1,1,45.47,0Z"/><path class="cls-2" d="M211.55,160.72h-1.32a15.9,15.9,0,1,0-31.79,0h-1.33a17.22,17.22,0,0,1,34.44,0Z"/><path class="cls-2" d="M206,160.72h-1.32a10.38,10.38,0,1,0-20.75,0h-1.33a11.7,11.7,0,1,1,23.4,0Z"/><path class="cls-2" d="M200.51,160.72h-1.32a4.86,4.86,0,1,0-9.71,0h-1.33a6.18,6.18,0,1,1,12.36,0Z"/><path class="cls-2" d="M294.33,160.72H293a32.45,32.45,0,1,0-64.9,0h-1.33a33.78,33.78,0,1,1,67.55,0Z"/><path class="cls-2" d="M288.81,160.72h-1.32a26.93,26.93,0,1,0-53.86,0H232.3a28.26,28.26,0,1,1,56.51,0Z"/><path class="cls-2" d="M283.3,160.72H282a21.41,21.41,0,1,0-42.82,0h-1.33a22.74,22.74,0,1,1,45.48,0Z"/><path class="cls-2" d="M277.78,160.72h-1.33a15.9,15.9,0,1,0-31.79,0h-1.32a17.22,17.22,0,1,1,34.44,0Z"/><path class="cls-2" d="M272.26,160.72h-1.33a10.38,10.38,0,1,0-20.75,0h-1.32a11.7,11.7,0,1,1,23.4,0Z"/><path class="cls-2" d="M227.45,227.6a33.77,33.77,0,0,1-33.78-33.77H195a32.45,32.45,0,0,0,64.9,0h1.32a33.77,33.77,0,0,1-33.77,33.77Z"/><path class="cls-2" d="M227.45,222.09a28.27,28.27,0,0,1-28.26-28.26h1.32a26.94,26.94,0,0,0,53.87,0h1.32a28.25,28.25,0,0,1-28.25,28.26Z"/><path class="cls-2" d="M227.45,216.57a22.76,22.76,0,0,1-22.74-22.74H206a21.42,21.42,0,0,0,42.83,0h1.32A22.76,22.76,0,0,1,227.45,216.57Z"/><path class="cls-2" d="M227.45,211.05a17.24,17.24,0,0,1-17.22-17.22h1.32a15.9,15.9,0,0,0,31.79,0h1.32A17.24,17.24,0,0,1,227.45,211.05Z"/><path class="cls-2" d="M227.45,205.53a11.71,11.71,0,0,1-11.7-11.7h1.32a10.38,10.38,0,0,0,20.75,0h1.33A11.72,11.72,0,0,1,227.45,205.53Z"/><path class="cls-2" d="M227.45,200a6.19,6.19,0,0,1-6.19-6.18h1.33a4.86,4.86,0,1,0,9.71,0h1.33A6.19,6.19,0,0,1,227.45,200Z"/><path class="cls-2" d="M161.22,227.6A33.76,33.76,0,1,1,195,193.83h-1.33a32.45,32.45,0,1,0-32.45,32.45Z"/><path class="cls-2" d="M161.22,222.09a28.26,28.26,0,1,1,28.26-28.26h-1.33a26.93,26.93,0,1,0-26.93,26.93Z"/><path class="cls-2" d="M161.22,216.57A22.74,22.74,0,1,1,184,193.83h-1.33a21.41,21.41,0,1,0-21.41,21.41Z"/><path class="cls-2" d="M161.22,211.05a17.22,17.22,0,1,1,17.22-17.22h-1.33a15.89,15.89,0,1,0-15.89,15.89Z"/><path class="cls-2" d="M161.22,205.53a11.7,11.7,0,1,1,11.7-11.7H171.6a10.38,10.38,0,1,0-10.38,10.37Z"/><path class="cls-2" d="M161.22,200a6.18,6.18,0,1,1,6.18-6.18h-1.32a4.86,4.86,0,1,0-4.86,4.86Z"/><rect class="cls-2" x="221.26" y="127.6" width="1.32" height="15.01"/><rect class="cls-2" x="215.75" y="127.6" width="1.32" height="8.43"/><rect class="cls-2" x="210.23" y="127.6" width="1.32" height="4.43"/><rect class="cls-2" x="204.71" y="127.6" width="1.32" height="1.88"/><rect class="cls-2" x="199.19" y="127.6" width="1.32" height="0.46"/><rect class="cls-2" x="188.15" y="160.72" width="1.32" height="15.01"/><rect class="cls-2" x="182.63" y="160.72" width="1.32" height="8.43"/><rect class="cls-2" x="177.11" y="160.72" width="1.32" height="4.43"/><rect class="cls-2" x="171.6" y="160.72" width="1.32" height="1.88"/><rect class="cls-2" x="166.08" y="160.72" width="1.32" height="0.46"/><rect class="cls-2" x="232.3" y="127.6" width="1.32" height="15.01"/><rect class="cls-2" x="237.82" y="127.6" width="1.32" height="8.43"/><rect class="cls-2" x="243.34" y="127.6" width="1.32" height="4.43"/><rect class="cls-2" x="248.86" y="127.6" width="1.32" height="1.88"/><rect class="cls-2" x="166.08" y="193.83" width="1.32" height="33.11"/><rect class="cls-2" x="171.6" y="193.83" width="1.32" height="33.11"/><rect class="cls-2" x="177.11" y="193.83" width="1.32" height="33.11"/><rect class="cls-2" x="182.63" y="193.83" width="1.32" height="33.11"/><rect class="cls-2" x="188.15" y="193.83" width="1.32" height="33.11"/><rect class="cls-2" x="204.71" y="160.72" width="1.32" height="33.11"/><rect class="cls-2" x="199.19" y="160.72" width="1.32" height="33.11"/><rect class="cls-2" x="210.23" y="160.72" width="1.32" height="33.11"/><rect class="cls-2" x="215.75" y="160.72" width="1.32" height="33.11"/><rect class="cls-2" x="221.26" y="160.72" width="1.32" height="33.11"/><rect class="cls-2" x="232.3" y="160.72" width="1.32" height="33.11"/><rect class="cls-2" x="237.82" y="160.72" width="1.32" height="33.11"/><rect class="cls-2" x="243.34" y="160.72" width="1.32" height="33.11"/><rect class="cls-2" x="248.86" y="160.72" width="1.32" height="33.11"/><path class="cls-2" d="M227.45,194.49a.66.66,0,0,1-.67-.66V127.6a.67.67,0,0,1,1.33,0v66.23A.66.66,0,0,1,227.45,194.49Z"/><path class="cls-2" d="M194.33,227.6a.66.66,0,0,1-.66-.66V160.72a.67.67,0,1,1,1.33,0v66.22A.66.66,0,0,1,194.33,227.6Z"/><path class="cls-2" d="M161.22,227.6a.66.66,0,0,1-.66-.66V193.83a.66.66,0,0,1,1.32,0v33.11A.65.65,0,0,1,161.22,227.6Z"/><circle class="cls-2" cx="194.33" cy="160.72" r="2.76"/><path class="cls-2" d="M197.15,160.72a2.82,2.82,0,1,0-2.82,2.81A2.82,2.82,0,0,0,197.15,160.72Zm-.11,0a2.71,2.71,0,1,1-2.71-2.71A2.71,2.71,0,0,1,197,160.72Z"/><circle class="cls-2" cx="227.45" cy="127.6" r="2.76"/><path class="cls-2" d="M230.26,127.6a2.82,2.82,0,1,0-2.81,2.82A2.81,2.81,0,0,0,230.26,127.6Zm-.11,0a2.71,2.71,0,1,1-2.7-2.7A2.7,2.7,0,0,1,230.15,127.6Z"/><circle class="cls-2" cx="161.22" cy="193.83" r="2.76"/><path class="cls-2" d="M164,193.83a2.82,2.82,0,1,0-2.82,2.81A2.83,2.83,0,0,0,164,193.83Zm-.12,0a2.7,2.7,0,1,1-2.7-2.7A2.7,2.7,0,0,1,163.92,193.83Z"/><path class="cls-2" d="M135.94,226.6h-1.32a32.45,32.45,0,0,0-64.9,0H68.39a33.78,33.78,0,0,1,67.55,0Z"/><path class="cls-2" d="M10.66,127.6H9.34A32.49,32.49,0,0,0-23.11,95.15,32.48,32.48,0,0,0-55.56,127.6h-1.33A33.55,33.55,0,0,1-47,103.72a33.55,33.55,0,0,1,23.89-9.89A33.55,33.55,0,0,1,.77,103.72,33.55,33.55,0,0,1,10.66,127.6Z"/><path class="cls-2" d="M5.14,127.6H3.82a27,27,0,0,0-26.93-26.93A27,27,0,0,0-50,127.6h-1.32a28.08,28.08,0,0,1,8.28-20,28.08,28.08,0,0,1,20-8.27,28.11,28.11,0,0,1,20,8.27A28.11,28.11,0,0,1,5.14,127.6Z"/><path class="cls-2" d="M43.77,160.72H42.45a32.45,32.45,0,0,0-64.9,0h-1.33a33.58,33.58,0,0,1,9.9-23.89A33.59,33.59,0,0,1,10,126.94a33.59,33.59,0,0,1,23.88,9.89A33.57,33.57,0,0,1,43.77,160.72Z"/><path class="cls-2" d="M38.25,160.72H36.93a26.93,26.93,0,0,0-53.86,0h-1.33a28,28,0,0,1,8.28-20,28.06,28.06,0,0,1,20-8.28,28.06,28.06,0,0,1,20,8.28A28,28,0,0,1,38.25,160.72Z"/><path class="cls-2" d="M32.74,160.72H31.41a21.41,21.41,0,1,0-42.82,0h-1.33a22.74,22.74,0,0,1,45.48,0Z"/><path class="cls-2" d="M27.22,160.72H25.89a15.9,15.9,0,1,0-31.79,0H-7.22a17.22,17.22,0,0,1,34.44,0Z"/><path class="cls-2" d="M21.7,160.72H20.37a10.38,10.38,0,1,0-20.75,0H-1.7a11.7,11.7,0,0,1,23.4,0Z"/><path class="cls-2" d="M16.18,160.72H14.86a4.86,4.86,0,0,0-9.72,0H3.82a6.18,6.18,0,1,1,12.36,0Z"/><path class="cls-2" d="M-23.11,227.6A33.55,33.55,0,0,1-47,217.71a33.55,33.55,0,0,1-9.89-23.88h1.33a32.48,32.48,0,0,0,32.45,32.45A32.49,32.49,0,0,0,9.34,193.83h1.32A33.55,33.55,0,0,1,.77,217.71,33.55,33.55,0,0,1-23.11,227.6Z"/><path class="cls-2" d="M-23.11,222.09a28,28,0,0,1-20-8.28,28.06,28.06,0,0,1-8.28-20H-50a27,27,0,0,0,26.94,26.93A27,27,0,0,0,3.82,193.83H5.14a28.09,28.09,0,0,1-8.27,20A28.08,28.08,0,0,1-23.11,222.09Z"/><path class="cls-2" d="M43.11,227.6h-.66V193.83h1.32v32.44a32.45,32.45,0,1,0-33.11-32.44H9.34A33.76,33.76,0,0,1,67,170,33.77,33.77,0,0,1,43.11,227.6Z"/><path class="cls-2" d="M43.11,222.09v-1.33a26.93,26.93,0,1,0-26.93-26.93H14.86a28.25,28.25,0,1,1,28.25,28.26Z"/><path class="cls-2" d="M43.11,216.57v-1.33A21.41,21.41,0,1,0,21.7,193.83H20.37a22.74,22.74,0,1,1,22.74,22.74Z"/><path class="cls-2" d="M43.11,211.05v-1.33a15.89,15.89,0,1,0-15.89-15.89H25.89a17.22,17.22,0,1,1,17.22,17.22Z"/><path class="cls-2" d="M43.11,205.53V204.2a10.38,10.38,0,1,0-10.37-10.37H31.41a11.7,11.7,0,1,1,11.7,11.7Z"/><path class="cls-2" d="M43.11,200v-1.32a4.86,4.86,0,1,0-4.86-4.86H36.93A6.18,6.18,0,1,1,43.11,200Z"/><rect class="cls-2" x="3.82" y="127.6" width="1.32" height="0.46"/><rect class="cls-2" x="14.86" y="160.72" width="1.32" height="15.01"/><rect class="cls-2" x="20.37" y="160.72" width="1.32" height="8.43"/><rect class="cls-2" x="25.89" y="160.72" width="1.32" height="4.43"/><rect class="cls-2" x="31.41" y="160.72" width="1.32" height="1.88"/><rect class="cls-2" x="36.93" y="160.72" width="1.32" height="0.46"/><rect class="cls-2" x="3.82" y="160.72" width="1.32" height="33.11"/><rect class="cls-2" x="14.86" y="193.83" width="1.32" height="33.11"/><rect class="cls-2" x="20.37" y="193.83" width="1.32" height="33.11"/><rect class="cls-2" x="25.89" y="193.83" width="1.32" height="33.11"/><rect class="cls-2" x="31.41" y="193.83" width="1.32" height="33.11"/><rect class="cls-2" x="36.93" y="193.83" width="1.32" height="33.11"/><path class="cls-2" d="M10,227.6a.65.65,0,0,1-.66-.66V160.72a.66.66,0,1,1,1.32,0v66.22A.66.66,0,0,1,10,227.6Z"/><circle class="cls-2" cx="10" cy="160.72" r="2.76"/><path class="cls-2" d="M12.81,160.72A2.82,2.82,0,1,0,10,163.53,2.81,2.81,0,0,0,12.81,160.72Zm-.11,0A2.71,2.71,0,1,1,10,158,2.7,2.7,0,0,1,12.7,160.72Z"/><circle class="cls-2" cx="43.11" cy="193.83" r="2.76"/><path class="cls-2" d="M45.93,193.83a2.82,2.82,0,1,0-2.82,2.81A2.83,2.83,0,0,0,45.93,193.83Zm-.11,0a2.71,2.71,0,1,1-2.71-2.7A2.71,2.71,0,0,1,45.82,193.83Z"/><path class="cls-2" d="M194.33,62.72a33.78,33.78,0,0,1-33.77-33.78h1.32a32.45,32.45,0,1,0,64.9,0h1.33a33.78,33.78,0,0,1-33.78,33.78Z"/><path class="cls-2" d="M194.33,57.2a28.25,28.25,0,0,1-28.25-28.26h1.32a26.93,26.93,0,1,0,53.86,0h1.33A28.27,28.27,0,0,1,194.33,57.2Z"/><path class="cls-2" d="M194.33,51.68A22.76,22.76,0,0,1,171.6,28.94h1.32a21.42,21.42,0,0,0,42.83,0h1.32A22.76,22.76,0,0,1,194.33,51.68Z"/><path class="cls-2" d="M194.33,46.16a17.24,17.24,0,0,1-17.22-17.22h1.33a15.9,15.9,0,1,0,31.79,0h1.32A17.23,17.23,0,0,1,194.33,46.16Z"/><path class="cls-2" d="M194.33,40.64a11.72,11.72,0,0,1-11.7-11.7H184a10.38,10.38,0,1,0,20.75,0H206A11.72,11.72,0,0,1,194.33,40.64Z"/><path class="cls-2" d="M194.33,35.12a6.19,6.19,0,0,1-6.18-6.18h1.33a4.86,4.86,0,1,0,9.71,0h1.32A6.18,6.18,0,0,1,194.33,35.12Z"/><path class="cls-2" d="M227.45,29.6a33.55,33.55,0,0,1-23.89-9.89,33.55,33.55,0,0,1-9.89-23.88H195a32.48,32.48,0,0,0,32.45,32.45A32.49,32.49,0,0,0,259.9-4.17h1.32a33.55,33.55,0,0,1-9.89,23.88A33.55,33.55,0,0,1,227.45,29.6Z"/><path class="cls-2" d="M227.45,24.09a28,28,0,0,1-20-8.28,28.06,28.06,0,0,1-8.28-20h1.32a27,27,0,0,0,26.94,26.93A27,27,0,0,0,254.38-4.17h1.32a28.09,28.09,0,0,1-8.27,20A28.08,28.08,0,0,1,227.45,24.09Z"/><path class="cls-2" d="M227.45,18.57A22.76,22.76,0,0,1,204.71-4.17H206a21.44,21.44,0,0,0,21.42,21.41A21.43,21.43,0,0,0,248.86-4.17h1.32A22.76,22.76,0,0,1,227.45,18.57Z"/><path class="cls-2" d="M227.45,13.05A17.24,17.24,0,0,1,210.23-4.17h1.32a15.91,15.91,0,0,0,15.9,15.89A15.91,15.91,0,0,0,243.34-4.17h1.32A17.24,17.24,0,0,1,227.45,13.05Z"/><path class="cls-2" d="M227.45,7.53a11.71,11.71,0,0,1-11.7-11.7h1.32A10.38,10.38,0,0,0,227.45,6.2,10.38,10.38,0,0,0,237.82-4.17h1.33A11.72,11.72,0,0,1,227.45,7.53Z"/><path class="cls-2" d="M227.45,2a6.19,6.19,0,0,1-6.19-6.18h1.33A4.87,4.87,0,0,0,227.45.69a4.86,4.86,0,0,0,4.85-4.86h1.33A6.19,6.19,0,0,1,227.45,2Z"/><path class="cls-2" d="M260.56,62.72a33.8,33.8,0,0,1-33.78-33.78h1.33a32.45,32.45,0,0,0,64.9,0h1.32a33.78,33.78,0,0,1-33.77,33.78Z"/><path class="cls-2" d="M260.56,57.2A28.27,28.27,0,0,1,232.3,28.94h1.33a26.93,26.93,0,1,0,53.86,0h1.32A28.25,28.25,0,0,1,260.56,57.2Z"/><path class="cls-2" d="M260.56,51.68a22.76,22.76,0,0,1-22.74-22.74h1.33a21.41,21.41,0,0,0,42.82,0h1.33A22.76,22.76,0,0,1,260.56,51.68Z"/><path class="cls-2" d="M260.56,46.16a17.23,17.23,0,0,1-17.22-17.22h1.32a15.9,15.9,0,1,0,31.79,0h1.33A17.24,17.24,0,0,1,260.56,46.16Z"/><path class="cls-2" d="M260.56,40.64a11.72,11.72,0,0,1-11.7-11.7h1.32a10.38,10.38,0,1,0,20.75,0h1.33A11.72,11.72,0,0,1,260.56,40.64Z"/><path class="cls-2" d="M161.22,29.6a33.55,33.55,0,0,1-23.88-9.89,33.55,33.55,0,0,1-9.89-23.88A33.55,33.55,0,0,1,137.34-28a33.56,33.56,0,0,1,23.88-9.9A33.56,33.56,0,0,1,185.1-28,33.56,33.56,0,0,1,195-4.17h-1.33a32.49,32.49,0,0,0-32.45-32.45A32.49,32.49,0,0,0,128.77-4.17a32.49,32.49,0,0,0,32.45,32.45Z"/><path class="cls-2" d="M161.22,24.09a28.06,28.06,0,0,1-20-8.28,28.06,28.06,0,0,1-8.28-20,28.06,28.06,0,0,1,8.28-20,28.06,28.06,0,0,1,20-8.28,28.06,28.06,0,0,1,20,8.28,28.06,28.06,0,0,1,8.28,20h-1.33A27,27,0,0,0,161.22-31.1,27,27,0,0,0,134.29-4.17a27,27,0,0,0,26.93,26.93Z"/><path class="cls-2" d="M161.22,18.57A22.76,22.76,0,0,1,138.48-4.17a22.76,22.76,0,0,1,22.74-22.74A22.76,22.76,0,0,1,184-4.17h-1.33a21.43,21.43,0,0,0-21.41-21.41A21.43,21.43,0,0,0,139.81-4.17a21.43,21.43,0,0,0,21.41,21.41Z"/><path class="cls-2" d="M161.22,13.05A17.25,17.25,0,0,1,144-4.17a17.25,17.25,0,0,1,17.22-17.22A17.24,17.24,0,0,1,178.44-4.17h-1.33a15.91,15.91,0,0,0-15.89-15.89A15.91,15.91,0,0,0,145.33-4.17a15.91,15.91,0,0,0,15.89,15.89Z"/><path class="cls-2" d="M161.22,7.53a11.72,11.72,0,0,1-11.7-11.7,11.72,11.72,0,0,1,11.7-11.7,11.72,11.72,0,0,1,11.7,11.7H171.6a10.4,10.4,0,0,0-10.38-10.38A10.39,10.39,0,0,0,150.85-4.17,10.38,10.38,0,0,0,161.22,6.2Z"/><path class="cls-2" d="M161.22,2A6.18,6.18,0,0,1,155-4.17a6.18,6.18,0,0,1,6.18-6.18,6.18,6.18,0,0,1,6.18,6.18h-1.32A4.87,4.87,0,0,0,161.22-9a4.87,4.87,0,0,0-4.86,4.86A4.87,4.87,0,0,0,161.22.69Z"/><rect class="cls-2" x="248.86" y="20.51" width="1.32" height="8.43"/><rect class="cls-2" x="243.34" y="24.51" width="1.32" height="4.43"/><rect class="cls-2" x="237.82" y="27.06" width="1.32" height="1.88"/><rect class="cls-2" x="232.3" y="28.48" width="1.32" height="0.46"/><rect class="cls-2" x="199.19" y="13.94" width="1.32" height="15.01"/><rect class="cls-2" x="204.71" y="20.51" width="1.32" height="8.43"/><rect class="cls-2" x="210.23" y="24.51" width="1.32" height="4.43"/><rect class="cls-2" x="215.75" y="27.06" width="1.32" height="1.88"/><rect class="cls-2" x="221.26" y="28.48" width="1.32" height="0.46"/><rect class="cls-2" x="166.08" y="-4.17" width="1.32" height="33.11"/><rect class="cls-2" x="171.6" y="-4.17" width="1.32" height="33.11"/><rect class="cls-2" x="177.11" y="-4.17" width="1.32" height="33.11"/><rect class="cls-2" x="182.63" y="-4.17" width="1.32" height="33.11"/><rect class="cls-2" x="188.15" y="-4.17" width="1.32" height="33.11"/><path class="cls-2" d="M227.45,95.83a33.77,33.77,0,0,1-33.78-33.78H195a32.45,32.45,0,1,0,64.9,0h1.32a33.77,33.77,0,0,1-33.77,33.78Z"/><path class="cls-2" d="M227.45,90.31a28.27,28.27,0,0,1-28.26-28.26h1.32a26.94,26.94,0,1,0,53.87,0h1.32a28.25,28.25,0,0,1-28.25,28.26Z"/><path class="cls-2" d="M227.45,84.79a22.76,22.76,0,0,1-22.74-22.74H206a21.42,21.42,0,1,0,42.83,0h1.32A22.76,22.76,0,0,1,227.45,84.79Z"/><path class="cls-2" d="M227.45,79.27a17.23,17.23,0,0,1-17.22-17.22h1.32a15.9,15.9,0,1,0,31.79,0h1.32A17.23,17.23,0,0,1,227.45,79.27Z"/><path class="cls-2" d="M227.45,73.75a11.7,11.7,0,0,1-11.7-11.7h1.32a10.38,10.38,0,1,0,20.75,0h1.33A11.71,11.71,0,0,1,227.45,73.75Z"/><path class="cls-2" d="M227.45,68.24a6.2,6.2,0,0,1-6.19-6.19h1.33a4.86,4.86,0,1,0,9.71,0h1.33A6.2,6.2,0,0,1,227.45,68.24Z"/><rect class="cls-2" x="232.3" y="47.05" width="1.32" height="15.01"/><rect class="cls-2" x="237.82" y="53.62" width="1.32" height="8.43"/><rect class="cls-2" x="243.34" y="57.62" width="1.32" height="4.43"/><rect class="cls-2" x="248.86" y="60.17" width="1.32" height="1.88"/><rect class="cls-2" x="221.26" y="47.05" width="1.32" height="15.01"/><rect class="cls-2" x="215.75" y="53.62" width="1.32" height="8.43"/><rect class="cls-2" x="210.23" y="57.62" width="1.32" height="4.43"/><rect class="cls-2" x="204.71" y="60.17" width="1.32" height="1.88"/><rect class="cls-2" x="199.19" y="61.6" width="1.32" height="0.46"/><path class="cls-2" d="M227.45,62.72a.67.67,0,0,1-.67-.67V34.46a.67.67,0,0,1,1.33,0V62.05A.67.67,0,0,1,227.45,62.72Z"/><path class="cls-2" d="M194.33,29.6a.66.66,0,0,1-.66-.66V-37.28a.67.67,0,0,1,.66-.67.67.67,0,0,1,.67.67V28.94A.66.66,0,0,1,194.33,29.6Z"/><path class="cls-2" d="M161.22,29.6a.66.66,0,0,1-.66-.66V-4.17a.66.66,0,0,1,.66-.66.65.65,0,0,1,.66.66V28.94A.65.65,0,0,1,161.22,29.6Z"/><circle class="cls-2" cx="227.45" cy="62.05" r="2.76"/><path class="cls-2" d="M230.26,62.05a2.82,2.82,0,1,0-2.81,2.82A2.81,2.81,0,0,0,230.26,62.05Zm-.11,0a2.71,2.71,0,1,1-2.7-2.7A2.7,2.7,0,0,1,230.15,62.05Z"/><circle class="cls-2" cx="194.33" cy="28.94" r="2.76"/><path class="cls-2" d="M197.15,28.94a2.82,2.82,0,1,0-2.82,2.82A2.81,2.81,0,0,0,197.15,28.94Zm-.11,0a2.71,2.71,0,1,1-2.71-2.7A2.72,2.72,0,0,1,197,28.94Z"/><path class="cls-2" d="M135.94,28.6h-1.32a32.45,32.45,0,0,0-64.9,0H68.39a33.78,33.78,0,0,1,67.55,0Z"/><path class="cls-2" d="M130.42,28.6H129.1a26.94,26.94,0,0,0-53.87,0H73.91a28.26,28.26,0,1,1,56.51,0Z"/><path class="cls-2" d="M124.9,28.6h-1.32a21.42,21.42,0,0,0-42.83,0H79.43a22.74,22.74,0,0,1,45.47,0Z"/><path class="cls-2" d="M119.38,28.6h-1.32a15.9,15.9,0,0,0-31.79,0H85a17.22,17.22,0,0,1,34.43,0Z"/><path class="cls-2" d="M113.87,28.6h-1.33a10.38,10.38,0,0,0-20.75,0H90.47a11.7,11.7,0,0,1,23.4,0Z"/><path class="cls-2" d="M108.35,28.6H107a4.86,4.86,0,0,0-9.71,0H96a6.19,6.19,0,0,1,12.37,0Z"/><path class="cls-2" d="M102.83,61.72H101.5a32.45,32.45,0,0,0-64.9,0H35.28a33.78,33.78,0,1,1,67.55,0Z"/><path class="cls-2" d="M97.31,61.72H96a26.93,26.93,0,0,0-53.86,0H40.8a28.26,28.26,0,0,1,56.51,0Z"/><path class="cls-2" d="M91.79,61.72H90.47a21.42,21.42,0,1,0-42.83,0H46.32a22.74,22.74,0,1,1,45.47,0Z"/><path class="cls-2" d="M86.27,61.72H85a15.9,15.9,0,1,0-31.79,0H51.83a17.22,17.22,0,1,1,34.44,0Z"/><path class="cls-2" d="M80.75,61.72H79.43a10.38,10.38,0,1,0-20.75,0H57.35a11.7,11.7,0,0,1,23.4,0Z"/><path class="cls-2" d="M75.23,61.72H73.91a4.86,4.86,0,1,0-9.71,0H62.87a6.18,6.18,0,0,1,12.36,0Z"/><path class="cls-2" d="M169.05,61.72h-1.32a32.45,32.45,0,1,0-64.9,0H101.5a33.78,33.78,0,1,1,67.55,0Z"/><path class="cls-2" d="M163.53,61.72h-1.32a26.93,26.93,0,0,0-53.86,0H107a28.26,28.26,0,1,1,56.51,0Z"/><path class="cls-2" d="M158,61.72h-1.33a21.41,21.41,0,1,0-42.82,0h-1.33a22.74,22.74,0,0,1,45.48,0Z"/><path class="cls-2" d="M152.5,61.72h-1.33a15.9,15.9,0,1,0-31.79,0h-1.32a17.22,17.22,0,0,1,34.44,0Z"/><path class="cls-2" d="M147,61.72h-1.33a10.38,10.38,0,1,0-20.75,0h-1.32a11.7,11.7,0,1,1,23.4,0Z"/><path class="cls-2" d="M141.46,61.72h-1.32a4.86,4.86,0,1,0-9.72,0H129.1a6.18,6.18,0,0,1,12.36,0Z"/><path class="cls-2" d="M69.05,161.72a33.78,33.78,0,0,1-33.77-33.78H36.6a32.45,32.45,0,0,0,64.9,0h1.33a33.78,33.78,0,0,1-33.78,33.78Z"/><path class="cls-2" d="M69.05,156.2A28.25,28.25,0,0,1,40.8,127.94h1.32a26.93,26.93,0,0,0,53.86,0h1.33A28.27,28.27,0,0,1,69.05,156.2Z"/><path class="cls-2" d="M69.05,150.68a22.76,22.76,0,0,1-22.73-22.74h1.32a21.42,21.42,0,0,0,42.83,0h1.32A22.76,22.76,0,0,1,69.05,150.68Z"/><path class="cls-2" d="M69.05,145.16a17.24,17.24,0,0,1-17.22-17.22h1.33a15.9,15.9,0,1,0,31.79,0h1.32A17.23,17.23,0,0,1,69.05,145.16Z"/><path class="cls-2" d="M69.05,139.64a11.72,11.72,0,0,1-11.7-11.7h1.33a10.38,10.38,0,1,0,20.75,0h1.32A11.72,11.72,0,0,1,69.05,139.64Z"/><path class="cls-2" d="M69.05,134.12a6.19,6.19,0,0,1-6.18-6.18H64.2a4.86,4.86,0,1,0,9.71,0h1.32A6.18,6.18,0,0,1,69.05,134.12Z"/><path class="cls-2" d="M102.17,128.6A33.77,33.77,0,0,1,68.39,94.83h1.33a32.45,32.45,0,0,0,64.9,0h1.32a33.77,33.77,0,0,1-33.77,33.77Z"/><path class="cls-2" d="M102.17,123.09A28.27,28.27,0,0,1,73.91,94.83h1.32a26.94,26.94,0,0,0,53.87,0h1.32a28.25,28.25,0,0,1-28.25,28.26Z"/><path class="cls-2" d="M102.17,117.57A22.76,22.76,0,0,1,79.43,94.83h1.32a21.42,21.42,0,0,0,42.83,0h1.32A22.76,22.76,0,0,1,102.17,117.57Z"/><path class="cls-2" d="M102.17,112.05A17.24,17.24,0,0,1,85,94.83h1.32a15.9,15.9,0,0,0,31.79,0h1.32A17.24,17.24,0,0,1,102.17,112.05Z"/><path class="cls-2" d="M102.17,106.53a11.71,11.71,0,0,1-11.7-11.7h1.32a10.38,10.38,0,0,0,20.75,0h1.33A11.72,11.72,0,0,1,102.17,106.53Z"/><path class="cls-2" d="M102.17,101A6.19,6.19,0,0,1,96,94.83h1.33a4.86,4.86,0,1,0,9.71,0h1.33A6.19,6.19,0,0,1,102.17,101Z"/><path class="cls-2" d="M135.28,161.72a33.8,33.8,0,0,1-33.78-33.78h1.33a32.45,32.45,0,1,0,64.9,0h1.32a33.78,33.78,0,0,1-33.77,33.78Z"/><path class="cls-2" d="M135.28,156.2A28.27,28.27,0,0,1,107,127.94h1.33a26.93,26.93,0,1,0,53.86,0h1.32a28.25,28.25,0,0,1-28.25,28.26Z"/><path class="cls-2" d="M135.28,150.68a22.76,22.76,0,0,1-22.74-22.74h1.33a21.41,21.41,0,0,0,42.82,0H158A22.76,22.76,0,0,1,135.28,150.68Z"/><path class="cls-2" d="M135.28,145.16a17.23,17.23,0,0,1-17.22-17.22h1.32a15.9,15.9,0,1,0,31.79,0h1.33A17.24,17.24,0,0,1,135.28,145.16Z"/><path class="cls-2" d="M135.28,139.64a11.72,11.72,0,0,1-11.7-11.7h1.32a10.38,10.38,0,1,0,20.75,0H147A11.72,11.72,0,0,1,135.28,139.64Z"/><path class="cls-2" d="M135.28,134.12a6.18,6.18,0,0,1-6.18-6.18h1.32a4.86,4.86,0,1,0,9.72,0h1.32A6.18,6.18,0,0,1,135.28,134.12Z"/><path class="cls-2" d="M35.94,128.6A33.76,33.76,0,1,1,69.72,94.83H68.39a32.45,32.45,0,1,0-32.45,32.45Z"/><path class="cls-2" d="M35.94,123.09A28.26,28.26,0,1,1,64.2,94.83H62.87a26.93,26.93,0,1,0-26.93,26.93Z"/><path class="cls-2" d="M35.94,117.57A22.74,22.74,0,1,1,58.68,94.83H57.35a21.41,21.41,0,1,0-21.41,21.41Z"/><path class="cls-2" d="M35.94,112.05A17.22,17.22,0,1,1,53.16,94.83H51.83a15.89,15.89,0,1,0-15.89,15.89Z"/><path class="cls-2" d="M35.94,106.53a11.7,11.7,0,1,1,11.7-11.7H46.32A10.38,10.38,0,1,0,35.94,105.2Z"/><path class="cls-2" d="M35.94,101a6.18,6.18,0,1,1,6.18-6.18H40.8a4.86,4.86,0,1,0-4.86,4.86Z"/><path class="cls-2" d="M168.39,128.6h-.66V94.83h1.32v32.44a32.45,32.45,0,1,0-33.11-32.44h-1.32a33.77,33.77,0,1,1,33.77,33.77Z"/><path class="cls-2" d="M168.39,123.09v-1.33a26.93,26.93,0,1,0-26.93-26.93h-1.32a28.25,28.25,0,1,1,28.25,28.26Z"/><path class="cls-2" d="M168.39,117.57v-1.33A21.41,21.41,0,1,0,147,94.83h-1.33a22.74,22.74,0,1,1,22.74,22.74Z"/><path class="cls-2" d="M168.39,112.05v-1.33A15.89,15.89,0,1,0,152.5,94.83h-1.33a17.22,17.22,0,1,1,17.22,17.22Z"/><path class="cls-2" d="M168.39,106.53V105.2A10.38,10.38,0,1,0,158,94.83h-1.33a11.7,11.7,0,1,1,11.7,11.7Z"/><path class="cls-2" d="M168.39,101V99.69a4.86,4.86,0,1,0-4.86-4.86h-1.32a6.18,6.18,0,1,1,6.18,6.18Z"/><rect class="cls-2" x="95.98" y="28.6" width="1.32" height="15.01"/><rect class="cls-2" x="90.47" y="28.6" width="1.32" height="8.43"/><rect class="cls-2" x="84.95" y="28.6" width="1.32" height="4.43"/><rect class="cls-2" x="79.43" y="28.6" width="1.32" height="1.88"/><rect class="cls-2" x="73.91" y="28.6" width="1.32" height="0.46"/><rect class="cls-2" x="62.87" y="61.72" width="1.32" height="15.01"/><rect class="cls-2" x="57.35" y="61.72" width="1.32" height="8.43"/><rect class="cls-2" x="51.83" y="61.72" width="1.32" height="4.43"/><rect class="cls-2" x="46.32" y="61.72" width="1.32" height="1.88"/><rect class="cls-2" x="40.8" y="61.72" width="1.32" height="0.46"/><rect class="cls-2" x="129.1" y="112.94" width="1.32" height="15.01"/><rect class="cls-2" x="123.58" y="119.51" width="1.32" height="8.43"/><rect class="cls-2" x="118.06" y="123.51" width="1.32" height="4.43"/><rect class="cls-2" x="112.54" y="126.06" width="1.32" height="1.88"/><rect class="cls-2" x="107.02" y="127.48" width="1.32" height="0.46"/><rect class="cls-2" x="73.91" y="112.94" width="1.32" height="15.01"/><rect class="cls-2" x="79.43" y="119.51" width="1.32" height="8.43"/><rect class="cls-2" x="84.95" y="123.51" width="1.32" height="4.43"/><rect class="cls-2" x="90.47" y="126.06" width="1.32" height="1.88"/><rect class="cls-2" x="95.98" y="127.48" width="1.32" height="0.46"/><rect class="cls-2" x="107.02" y="28.6" width="1.32" height="15.01"/><rect class="cls-2" x="112.54" y="28.6" width="1.32" height="8.43"/><rect class="cls-2" x="118.06" y="28.6" width="1.32" height="4.43"/><rect class="cls-2" x="123.58" y="28.6" width="1.32" height="1.88"/><rect class="cls-2" x="129.1" y="28.6" width="1.32" height="0.46"/><rect class="cls-2" x="140.14" y="61.72" width="1.32" height="15.01"/><rect class="cls-2" x="145.65" y="61.72" width="1.32" height="8.43"/><rect class="cls-2" x="151.17" y="61.72" width="1.32" height="4.43"/><rect class="cls-2" x="156.69" y="61.72" width="1.32" height="1.88"/><rect class="cls-2" x="162.21" y="61.72" width="1.32" height="0.46"/><rect class="cls-2" x="40.8" y="94.83" width="1.32" height="33.11"/><rect class="cls-2" x="46.32" y="94.83" width="1.32" height="33.11"/><rect class="cls-2" x="51.83" y="94.83" width="1.32" height="33.11"/><rect class="cls-2" x="57.35" y="94.83" width="1.32" height="33.11"/><rect class="cls-2" x="62.87" y="94.83" width="1.32" height="33.11"/><rect class="cls-2" x="79.43" y="61.72" width="1.32" height="33.11"/><rect class="cls-2" x="73.91" y="61.72" width="1.32" height="33.11"/><rect class="cls-2" x="84.95" y="61.72" width="1.32" height="33.11"/><rect class="cls-2" x="90.47" y="61.72" width="1.32" height="33.11"/><rect class="cls-2" x="95.98" y="61.72" width="1.32" height="33.11"/><rect class="cls-2" x="107.02" y="61.72" width="1.32" height="33.11"/><rect class="cls-2" x="112.54" y="61.72" width="1.32" height="33.11"/><rect class="cls-2" x="118.06" y="61.72" width="1.32" height="33.11"/><rect class="cls-2" x="123.58" y="61.72" width="1.32" height="33.11"/><rect class="cls-2" x="129.1" y="61.72" width="1.32" height="33.11"/><rect class="cls-2" x="140.14" y="94.83" width="1.32" height="33.11"/><rect class="cls-2" x="145.65" y="94.83" width="1.32" height="33.11"/><rect class="cls-2" x="151.17" y="94.83" width="1.32" height="33.11"/><rect class="cls-2" x="156.69" y="94.83" width="1.32" height="33.11"/><rect class="cls-2" x="162.21" y="94.83" width="1.32" height="33.11"/><path class="cls-2" d="M102.17,95.49a.66.66,0,0,1-.67-.66V28.6a.67.67,0,0,1,1.33,0V94.83A.66.66,0,0,1,102.17,95.49Z"/><path class="cls-2" d="M102.17,194.83a33.77,33.77,0,0,1-33.78-33.78h1.33a32.45,32.45,0,0,0,64.9,0h1.32a33.77,33.77,0,0,1-33.77,33.78Z"/><path class="cls-2" d="M102.17,189.31a28.27,28.27,0,0,1-28.26-28.26h1.32a26.94,26.94,0,1,0,53.87,0h1.32a28.25,28.25,0,0,1-28.25,28.26Z"/><path class="cls-2" d="M102.17,183.79a22.76,22.76,0,0,1-22.74-22.74h1.32a21.42,21.42,0,1,0,42.83,0h1.32A22.76,22.76,0,0,1,102.17,183.79Z"/><path class="cls-2" d="M102.17,178.27A17.23,17.23,0,0,1,85,161.05h1.32a15.9,15.9,0,1,0,31.79,0h1.32A17.23,17.23,0,0,1,102.17,178.27Z"/><path class="cls-2" d="M102.17,172.75a11.7,11.7,0,0,1-11.7-11.7h1.32a10.38,10.38,0,1,0,20.75,0h1.33A11.71,11.71,0,0,1,102.17,172.75Z"/><path class="cls-2" d="M102.17,167.24A6.2,6.2,0,0,1,96,161.05h1.33a4.86,4.86,0,1,0,9.71,0h1.33A6.2,6.2,0,0,1,102.17,167.24Z"/><rect class="cls-2" x="107.02" y="146.05" width="1.32" height="15.01"/><rect class="cls-2" x="112.54" y="152.62" width="1.32" height="8.43"/><rect class="cls-2" x="118.06" y="156.62" width="1.32" height="4.43"/><rect class="cls-2" x="123.58" y="159.17" width="1.32" height="1.88"/><rect class="cls-2" x="129.1" y="160.6" width="1.32" height="0.46"/><rect class="cls-2" x="95.98" y="146.05" width="1.32" height="15.01"/><rect class="cls-2" x="90.47" y="152.62" width="1.32" height="8.43"/><rect class="cls-2" x="84.95" y="156.62" width="1.32" height="4.43"/><rect class="cls-2" x="79.43" y="159.17" width="1.32" height="1.88"/><rect class="cls-2" x="73.91" y="160.6" width="1.32" height="0.46"/><path class="cls-2" d="M102.17,161.72a.67.67,0,0,1-.67-.67V133.46a.67.67,0,0,1,1.33,0v27.59A.67.67,0,0,1,102.17,161.72Z"/><path class="cls-2" d="M135.28,128.6a.65.65,0,0,1-.66-.66V61.72a.66.66,0,1,1,1.32,0v66.22A.66.66,0,0,1,135.28,128.6Z"/><path class="cls-2" d="M69.05,128.6a.66.66,0,0,1-.66-.66V61.72a.67.67,0,1,1,1.33,0v66.22A.66.66,0,0,1,69.05,128.6Z"/><path class="cls-2" d="M35.94,128.6a.66.66,0,0,1-.66-.66V94.83a.66.66,0,0,1,1.32,0v33.11A.65.65,0,0,1,35.94,128.6Z"/><circle class="cls-2" cx="69.05" cy="61.72" r="2.76"/><path class="cls-2" d="M71.87,61.72a2.82,2.82,0,1,0-2.82,2.81A2.82,2.82,0,0,0,71.87,61.72Zm-.11,0A2.71,2.71,0,1,1,69.05,59,2.71,2.71,0,0,1,71.76,61.72Z"/><circle class="cls-2" cx="135.28" cy="61.72" r="2.76"/><path class="cls-2" d="M138.09,61.72a2.82,2.82,0,1,0-2.81,2.81A2.81,2.81,0,0,0,138.09,61.72Zm-.11,0a2.71,2.71,0,1,1-2.7-2.71A2.7,2.7,0,0,1,138,61.72Z"/><circle class="cls-2" cx="102.17" cy="28.6" r="2.76"/><path class="cls-2" d="M105,28.6a2.82,2.82,0,1,0-2.81,2.82A2.81,2.81,0,0,0,105,28.6Zm-.11,0a2.71,2.71,0,1,1-2.7-2.7A2.7,2.7,0,0,1,104.87,28.6Z"/><circle class="cls-2" cx="102.17" cy="161.05" r="2.76"/><path class="cls-2" d="M105,161.05a2.82,2.82,0,1,0-2.81,2.82A2.81,2.81,0,0,0,105,161.05Zm-.11,0a2.71,2.71,0,1,1-2.7-2.7A2.7,2.7,0,0,1,104.87,161.05Z"/><circle class="cls-2" cx="69.05" cy="127.94" r="2.76"/><path class="cls-2" d="M71.87,127.94a2.82,2.82,0,1,0-2.82,2.82A2.81,2.81,0,0,0,71.87,127.94Zm-.11,0a2.71,2.71,0,1,1-2.71-2.7A2.72,2.72,0,0,1,71.76,127.94Z"/><circle class="cls-2" cx="135.28" cy="127.94" r="2.76"/><path class="cls-2" d="M138.09,127.94a2.82,2.82,0,1,0-2.81,2.82A2.81,2.81,0,0,0,138.09,127.94Zm-.11,0a2.71,2.71,0,1,1-2.7-2.7A2.71,2.71,0,0,1,138,127.94Z"/><circle class="cls-2" cx="168.39" cy="94.83" r="2.76"/><path class="cls-2" d="M171.21,94.83a2.82,2.82,0,1,0-2.82,2.81A2.83,2.83,0,0,0,171.21,94.83Zm-.11,0a2.71,2.71,0,1,1-2.71-2.7A2.71,2.71,0,0,1,171.1,94.83Z"/><circle class="cls-2" cx="35.94" cy="94.83" r="2.76"/><path class="cls-2" d="M38.76,94.83a2.82,2.82,0,1,0-2.82,2.81A2.83,2.83,0,0,0,38.76,94.83Zm-.12,0a2.7,2.7,0,1,1-2.7-2.7A2.7,2.7,0,0,1,38.64,94.83Z"/><path class="cls-2" d="M-23.11,29.6A33.55,33.55,0,0,1-47,19.71,33.55,33.55,0,0,1-56.89-4.17h1.33A32.48,32.48,0,0,0-23.11,28.28,32.49,32.49,0,0,0,9.34-4.17h1.32A33.55,33.55,0,0,1,.77,19.71,33.55,33.55,0,0,1-23.11,29.6Z"/><path class="cls-2" d="M-23.11,24.09a28,28,0,0,1-20-8.28,28.06,28.06,0,0,1-8.28-20H-50A27,27,0,0,0-23.11,22.76,27,27,0,0,0,3.82-4.17H5.14a28.09,28.09,0,0,1-8.27,20A28.08,28.08,0,0,1-23.11,24.09Z"/><path class="cls-2" d="M10,62.72a33.56,33.56,0,0,1-23.88-9.9,33.54,33.54,0,0,1-9.9-23.88h1.33a32.45,32.45,0,0,0,64.9,0h1.32a33.53,33.53,0,0,1-9.89,23.88A33.56,33.56,0,0,1,10,62.72Z"/><path class="cls-2" d="M10,57.2a28.06,28.06,0,0,1-20-8.28,28,28,0,0,1-8.28-20h1.33a26.93,26.93,0,0,0,53.86,0h1.32a28,28,0,0,1-8.27,20A28.06,28.06,0,0,1,10,57.2Z"/><path class="cls-2" d="M10,51.68A22.76,22.76,0,0,1-12.74,28.94h1.33a21.41,21.41,0,0,0,42.82,0h1.33A22.76,22.76,0,0,1,10,51.68Z"/><path class="cls-2" d="M10,46.16A17.23,17.23,0,0,1-7.22,28.94H-5.9a15.9,15.9,0,1,0,31.79,0h1.33A17.24,17.24,0,0,1,10,46.16Z"/><path class="cls-2" d="M10,40.64A11.72,11.72,0,0,1-1.7,28.94H-.38a10.38,10.38,0,1,0,20.75,0H21.7A11.72,11.72,0,0,1,10,40.64Z"/><path class="cls-2" d="M10,35.12a6.18,6.18,0,0,1-6.18-6.18H5.14a4.86,4.86,0,0,0,9.72,0h1.32A6.18,6.18,0,0,1,10,35.12Z"/><path class="cls-2" d="M43.11,29.6h-.66V-4.17h1.32V28.27A32.48,32.48,0,0,0,75.56-4.17,32.49,32.49,0,0,0,43.11-36.62,32.49,32.49,0,0,0,10.66-4.17H9.34A33.55,33.55,0,0,1,19.23-28a33.56,33.56,0,0,1,23.88-9.9A33.56,33.56,0,0,1,67-28a33.56,33.56,0,0,1,9.9,23.88A33.56,33.56,0,0,1,67,19.71,33.55,33.55,0,0,1,43.11,29.6Z"/><path class="cls-2" d="M43.11,24.09V22.76A27,27,0,0,0,70-4.17,27,27,0,0,0,43.11-31.1,27,27,0,0,0,16.18-4.17H14.86a28.05,28.05,0,0,1,8.27-20,28.06,28.06,0,0,1,20-8.28,28.06,28.06,0,0,1,20,8.28,28.06,28.06,0,0,1,8.28,20,28.06,28.06,0,0,1-8.28,20A28.06,28.06,0,0,1,43.11,24.09Z"/><path class="cls-2" d="M43.11,18.57V17.24A21.43,21.43,0,0,0,64.52-4.17,21.43,21.43,0,0,0,43.11-25.58,21.43,21.43,0,0,0,21.7-4.17H20.37A22.76,22.76,0,0,1,43.11-26.91,22.76,22.76,0,0,1,65.85-4.17,22.76,22.76,0,0,1,43.11,18.57Z"/><path class="cls-2" d="M43.11,13.05V11.72A15.91,15.91,0,0,0,59-4.17a15.91,15.91,0,0,0-15.9-15.89A15.91,15.91,0,0,0,27.22-4.17H25.89A17.25,17.25,0,0,1,43.11-21.39,17.24,17.24,0,0,1,60.33-4.17,17.24,17.24,0,0,1,43.11,13.05Z"/><path class="cls-2" d="M43.11,7.53V6.2A10.39,10.39,0,0,0,53.49-4.17,10.4,10.4,0,0,0,43.11-14.55,10.39,10.39,0,0,0,32.74-4.17H31.41a11.72,11.72,0,0,1,11.7-11.7,11.72,11.72,0,0,1,11.7,11.7A11.72,11.72,0,0,1,43.11,7.53Z"/><path class="cls-2" d="M43.11,2V.69A4.87,4.87,0,0,0,48-4.17,4.87,4.87,0,0,0,43.11-9a4.87,4.87,0,0,0-4.86,4.86H36.93a6.18,6.18,0,0,1,6.18-6.18,6.18,6.18,0,0,1,6.18,6.18A6.18,6.18,0,0,1,43.11,2Z"/><rect class="cls-2" x="3.82" y="13.94" width="1.32" height="15.01"/><rect class="cls-2" x="14.86" y="-4.17" width="1.32" height="33.11"/><rect class="cls-2" x="20.37" y="-4.17" width="1.32" height="33.11"/><rect class="cls-2" x="25.89" y="-4.17" width="1.32" height="33.11"/><rect class="cls-2" x="31.41" y="-4.17" width="1.32" height="33.11"/><rect class="cls-2" x="36.93" y="-4.17" width="1.32" height="33.11"/><path class="cls-2" d="M-23.11,95.83A33.55,33.55,0,0,1-47,85.94a33.55,33.55,0,0,1-9.89-23.89h1.33A32.48,32.48,0,0,0-23.11,94.5,32.48,32.48,0,0,0,9.34,62.05h1.32A33.55,33.55,0,0,1,.77,85.94,33.55,33.55,0,0,1-23.11,95.83Z"/><path class="cls-2" d="M-23.11,90.31a28,28,0,0,1-20-8.28,28,28,0,0,1-8.28-20H-50A27,27,0,0,0-23.11,89,27,27,0,0,0,3.82,62.05H5.14A28.08,28.08,0,0,1-3.13,82,28.08,28.08,0,0,1-23.11,90.31Z"/><rect class="cls-2" x="3.82" y="61.6" width="1.32" height="0.46"/><path class="cls-2" d="M10,29.6a.65.65,0,0,1-.66-.66V-37.28a.66.66,0,0,1,.66-.67.67.67,0,0,1,.66.67V28.94A.66.66,0,0,1,10,29.6Z"/><circle class="cls-2" cx="10" cy="28.94" r="2.76"/><path class="cls-2" d="M12.81,28.94A2.82,2.82,0,1,0,10,31.76,2.81,2.81,0,0,0,12.81,28.94Zm-.11,0a2.71,2.71,0,1,1-2.7-2.7A2.71,2.71,0,0,1,12.7,28.94Z"/></pattern></defs><path class="cls-3" d="M0,63.56s478.22-137.5,960,0c0,0,407.67,137.5,960-61.12v1132s-464,87.33-960,0c-489.06-86.11-960,63.17-960,63.17" transform="translate(0 -2.44)"/><path class="cls-4" d="M0,63.56s478.22-137.5,960,0c0,0,407.67,137.5,960-61.12v1132s-464,87.33-960,0c-489.06-86.11-960,63.17-960,63.17" transform="translate(0 -2.44)"/></svg>