<svg id="Layer_1" data-name="Layer 1" xmlns="http://www.w3.org/2000/svg" viewBox="0 0 946.56 707.37"><defs><style>.cls-1{fill:#d4b05a;}</style></defs><path class="cls-1" d="M201.64,570.52c.4-2.48-.28-7.35,3.21-7.47,4.1-.14,8.17,2.76,10.67,6.61a6,6,0,0,1-.86,7.79c-2.21,2.27-5,3.71-8.53,2.18C202.28,577.93,201,574.75,201.64,570.52Z" transform="translate(-14.39 -13.89)"/><path class="cls-1" d="M482.39,218c-4.54-.07-6.06-2.85-6-6.85,0-3.74,4-7.32,7.68-7.06,3.81.27,6.33,4.15,6.74,10.36C490.84,215.46,484.64,218.07,482.39,218Z" transform="translate(-14.39 -13.89)"/><path class="cls-1" d="M358.44,221.64a5.31,5.31,0,0,1,5.8,5.68c-.06,3.31-1.43,6.7-4.68,8.17-1.82.83-6.92-4.92-7-7.58C352.51,224,355.09,221.87,358.44,221.64Z" transform="translate(-14.39 -13.89)"/><path class="cls-1" d="M697.83,621.89c3.06-1.23,6.11-2.48,9.17-3.72a4.68,4.68,0,0,0,.22-1.24c.07-3.28-3.16-6.61-6.38-6.23-3.5.42-5.9,2.4-5.84,6.14C695.05,619.41,696.17,621.15,697.83,621.89Z" transform="translate(-14.39 -13.89)"/><path class="cls-1" d="M382.4,135.27c0,.17,0,.33.05.51,0,.34,0,1.22,0,2.1-.1,2.27,0,4.32,3.12,4.29,2.76,0,3.7-1.42,3.39-4a6.23,6.23,0,0,1,.42-2.57,7.24,7.24,0,0,0,.45-3.07C387.35,133.42,384.87,134.34,382.4,135.27Z" transform="translate(-14.39 -13.89)"/><path class="cls-1" d="M772.88,69.31c3.51,0,4.91,2.5,4.71,5.37a5,5,0,0,1-5.65,4.93c-2.41-.2-4.7-1.84-4.6-4.8C767.47,71.27,769.71,69.31,772.88,69.31Z" transform="translate(-14.39 -13.89)"/><path class="cls-1" d="M179.31,677.75c.46,3.06-1.34,4.82-4.11,4.83-3.33,0-5.13-2.07-5.45-5.17-.31-2.95,1.37-4.54,4.34-4.63C177.78,672.67,179,675.35,179.31,677.75Z" transform="translate(-14.39 -13.89)"/><path class="cls-1" d="M702.16,331.51c.25,2.87-2.1,4.4-4.8,4.72-2.93.34-4.23-1.76-4.46-4.13-.26-2.71,1-4.75,4.14-4.9A4.5,4.5,0,0,1,702.16,331.51Z" transform="translate(-14.39 -13.89)"/><path class="cls-1" d="M214.21,522.39c.35,2.71-2,3.86-4.23,3.83-2.45,0-5.18-.51-5.18-3.88,0-2.72,1.8-4.22,4.35-4.37A4.67,4.67,0,0,1,214.21,522.39Z" transform="translate(-14.39 -13.89)"/><path class="cls-1" d="M207.69,473.21c2.71.5,5.81,1.75,6.51,5.22.38,1.85-.75,3.77-2.94,3.36-3-.56-6.6-.89-7.43-4.6A3.4,3.4,0,0,1,207.69,473.21Z" transform="translate(-14.39 -13.89)"/><path class="cls-1" d="M34.68,655.28c.06,1.86.31,3.5-1.41,4.18-2.12.85-2.56-1.13-3.26-2.51a2.94,2.94,0,0,0-.63-.85c-1.66-1.49-4-2.64-2.45-5.59,1-1.92,2.65-1.62,4.12-1.21C34.07,650.15,34.58,652.25,34.68,655.28Z" transform="translate(-14.39 -13.89)"/><path class="cls-1" d="M532.57,216.21c-3.84-2.4-1-9,4.43-9.74,2.37-.32,4.28,1,4.33,3.45C541.46,215.66,536.33,218.55,532.57,216.21Z" transform="translate(-14.39 -13.89)"/><path class="cls-1" d="M835.58,182.52a4.2,4.2,0,0,1,4.54-4.11c2.58,0,3.9,2.08,3.72,4.69a3.75,3.75,0,0,1-4.07,3.83A4,4,0,0,1,835.58,182.52Z" transform="translate(-14.39 -13.89)"/><path class="cls-1" d="M158.63,564.64c2.91-.42,4.25,2.09,4.36,4.45a3.65,3.65,0,0,1-4,3.92c-2.32,0-4-1.18-4.31-3.71C154.39,566.37,156.33,565,158.63,564.64Z" transform="translate(-14.39 -13.89)"/><path class="cls-1" d="M729.61,382.16a3.87,3.87,0,0,1-3.89,4.25c-2.34,0-4.46-1.18-4.49-4.09s1.62-4.09,4.32-4.09A3.76,3.76,0,0,1,729.61,382.16Z" transform="translate(-14.39 -13.89)"/><path class="cls-1" d="M760.45,423c-2.46-.07-4.54-1.61-4.22-4.65.23-2.27,1-4.22,3.69-4.17a4.34,4.34,0,0,1,4.59,4.71A4.29,4.29,0,0,1,760.45,423Z" transform="translate(-14.39 -13.89)"/><path class="cls-1" d="M877.36,180.84c1.88-.4,3.6.86,3.23,2.76a6.19,6.19,0,0,1-5.68,5.34,2.8,2.8,0,0,1-3.38-3.11C871.67,182.12,874.85,181.37,877.36,180.84Z" transform="translate(-14.39 -13.89)"/><path class="cls-1" d="M923.28,13.9a3.71,3.71,0,0,1,4.29,3.71,3.77,3.77,0,0,1-3.8,4.21c-2.61.06-4.57-1.06-4.52-3.95C919.29,15.42,920.81,14.05,923.28,13.9Z" transform="translate(-14.39 -13.89)"/><path class="cls-1" d="M647.94,163.92c3.3,0,4.38,1.75,4.3,4.17a3.79,3.79,0,0,1-4.12,3.9c-2.74-.05-4.14-2.11-4-4.63S646.25,164,647.94,163.92Z" transform="translate(-14.39 -13.89)"/><path class="cls-1" d="M653.07,623.73a4.27,4.27,0,0,1-4.46,4.59c-2.06,0-4.22-1.18-4.21-3.77s-6.57-12.77-4-13S652.84,621.66,653.07,623.73Z" transform="translate(-14.39 -13.89)"/><path class="cls-1" d="M324.73,204.09c3.06.24,4.76,2.28,4.67,5.44-.07,2.4-1.5,3.49-3.71,3.42-3.06-.11-4.21-1.9-4-4.88C321.88,206,322.25,203.89,324.73,204.09Z" transform="translate(-14.39 -13.89)"/><path class="cls-1" d="M299.71,196.76c2.46-.13,3.53,1.78,3.65,3.75a3.93,3.93,0,0,1-3.71,4.33c-2.44.15-3.91-1.86-3.95-4.09A3.87,3.87,0,0,1,299.71,196.76Z" transform="translate(-14.39 -13.89)"/><path class="cls-1" d="M906,170.71c1.65,2.82.49,5.85-3.11,6.23-2.48.25-4.3-1.75-4.17-4.37.18-3.6,2.66-5.58,5.7-3.56A5.14,5.14,0,0,1,906,170.71Z" transform="translate(-14.39 -13.89)"/><path class="cls-1" d="M499.58,232.85c2.08.05,4.3,1.05,4.19,3.93-.08,2.23-1.2,3.92-3.46,3.88a4.1,4.1,0,0,1-4.29-3.84A3.5,3.5,0,0,1,499.58,232.85Z" transform="translate(-14.39 -13.89)"/><path class="cls-1" d="M357.76,192.24C358,190,359.14,188,362,188.3c2.53.28,3.56,2.29,3.24,4.55s-1.65,4.37-4.46,4.16S357.43,194.78,357.76,192.24Z" transform="translate(-14.39 -13.89)"/><path class="cls-1" d="M723.41,201.49c2.42-.2,3.57,2.19,3.77,4.49.21,2.45-1.35,3.58-3.53,3.62-2.7.06-3.54-2.13-3.83-4.23C719.48,202.92,721.46,201.65,723.41,201.49Z" transform="translate(-14.39 -13.89)"/><path class="cls-1" d="M320,181.61c.05,2.83-1.51,3.62-3.87,3.73-2.64.13-4-1.33-3.8-3.8a3.9,3.9,0,0,1,4.08-3.91C319,177.56,319.92,179.1,320,181.61Z" transform="translate(-14.39 -13.89)"/><path class="cls-1" d="M556.68,221.41a2.06,2.06,0,0,1-2.53,2.49c-2.19-.35-4.72-1.17-4.78-4,0-2.24,1.16-4.26,3.8-4C556.09,216.1,556.31,218.53,556.68,221.41Z" transform="translate(-14.39 -13.89)"/><path class="cls-1" d="M703.34,103.68c.42,3.22-3.14,5.15-6.18,3.58s-6-8.28-2.12-7.93c4.05.37,5.89,5.44,7.62,3.26,0,0,0-.07-.06-.06C702.24,102.81,703.28,103.23,703.34,103.68Z" transform="translate(-14.39 -13.89)"/><path class="cls-1" d="M893.61,198.36c2.23.22,3.73,1.54,3.52,4.17-.17,2.14-1.08,3.78-3.48,3.6A3.9,3.9,0,0,1,889.8,202C889.86,200,891.06,198.11,893.61,198.36Z" transform="translate(-14.39 -13.89)"/><path class="cls-1" d="M724.54,574.31a3.69,3.69,0,0,1,3.76,4.12c-.13,2.21-1.73,3.42-3.92,3.47s-3.71-.94-3.74-3.41S721.89,574.2,724.54,574.31Z" transform="translate(-14.39 -13.89)"/><path class="cls-1" d="M440.6,183.64c.19,2.14-1.55,3.75-4,3.47-2.08-.25-3.66-1.27-3.51-3.67.13-2.12,1.13-3.72,3.45-3.81C439.32,179.53,440.43,181.69,440.6,183.64Z" transform="translate(-14.39 -13.89)"/><path class="cls-1" d="M861.5,288.29c.32,2.4-1.81,4-3.78,4.14s-3.53-1.3-3.65-3.59.93-3.77,3.3-3.77A4,4,0,0,1,861.5,288.29Z" transform="translate(-14.39 -13.89)"/><path class="cls-1" d="M692.74,435.67c-.07,2-1.19,3.86-3.61,3.85a3.25,3.25,0,0,1-3.42-3.24,3.67,3.67,0,0,1,3.55-3.8A3.17,3.17,0,0,1,692.74,435.67Z" transform="translate(-14.39 -13.89)"/><path class="cls-1" d="M188.55,628.14c.1,2-1.87,2.71-3.62,2.88-2,.19-3.61-.69-3.41-2.89a3.63,3.63,0,0,1,3.54-3.27C187.22,624.66,188.44,626.09,188.55,628.14Z" transform="translate(-14.39 -13.89)"/><path class="cls-1" d="M844.3,46.51c-.27-2.6,1.23-4.2,3.46-4.31a3,3,0,0,1,3.39,3.21A3.46,3.46,0,0,1,847.93,49C845.9,49.28,844.46,48.15,844.3,46.51Z" transform="translate(-14.39 -13.89)"/><path class="cls-1" d="M935.91,87.64a3.34,3.34,0,0,1-3.45-3.56c.12-2,1.47-3.88,3.63-3.76a3.57,3.57,0,0,1,3.26,4.09A3.41,3.41,0,0,1,935.91,87.64Z" transform="translate(-14.39 -13.89)"/><path class="cls-1" d="M120.29,492.45a2.94,2.94,0,0,1-3.18,3.2c-1.91,0-3.5-.81-3.63-2.9a3.15,3.15,0,0,1,3.41-3.65A3.11,3.11,0,0,1,120.29,492.45Z" transform="translate(-14.39 -13.89)"/><path class="cls-1" d="M295.76,442.72c-3.77-.71-4.75-2-4.56-4.27.17-2,1.48-2.69,3.22-2.63,2.52.08,3.33,2,3.13,4C297.4,441.31,296.42,442.84,295.76,442.72Z" transform="translate(-14.39 -13.89)"/><path class="cls-1" d="M205.38,451.93c-1.77-.7-3.09-1.58-2.9-3.81a2.91,2.91,0,0,1,3.5-3c1.79.19,3.32,1.38,3,3.57C208.69,450.75,207.14,451.55,205.38,451.93Z" transform="translate(-14.39 -13.89)"/><path class="cls-1" d="M132.59,562.78c-.5,2.86-4.42,2.34-6.53,3.63-.69.43-1.61-1.21-1.29-1.74,1.2-2,2.58-4.18,5.09-4.59A2.36,2.36,0,0,1,132.59,562.78Z" transform="translate(-14.39 -13.89)"/><path class="cls-1" d="M665.29,112.22c-.48-2,1.05-2.92,2.94-2.86a2.18,2.18,0,0,1,2.3,2.73c-.23,2-1,4.42-2.81,4.5C665.15,116.71,665.68,113.84,665.29,112.22Z" transform="translate(-14.39 -13.89)"/><path class="cls-1" d="M675.79,390.2c-.37,1.6-1.43,3.39-3.75,3a3,3,0,0,1-2.69-3.35,3.11,3.11,0,0,1,3.34-2.8C674.56,387.08,676.18,388.49,675.79,390.2Z" transform="translate(-14.39 -13.89)"/><path class="cls-1" d="M796.68,424.94c-.07.93-1.29,1.58-3.16,1.45s-3.3-.86-2.94-2.85c.33-1.76,1.55-3.47,3.57-3.19C795.75,420.57,796.9,421.92,796.68,424.94Z" transform="translate(-14.39 -13.89)"/><path class="cls-1" d="M938.12,467.24a4.65,4.65,0,0,0-9.23.59,5.35,5.35,0,0,0,.58,2.63C932.35,469.38,935.24,468.3,938.12,467.24Z" transform="translate(-14.39 -13.89)"/><path class="cls-1" d="M948.58,411.74c-.05,2-1.6,2.75-3.13,2.83a2.6,2.6,0,0,1-3-2.83c.08-2.31,2-2.71,3.66-2.75A2.43,2.43,0,0,1,948.58,411.74Z" transform="translate(-14.39 -13.89)"/><path class="cls-1" d="M99.69,470.16a3,3,0,0,0-3.18-2.87,2.78,2.78,0,0,0-1.48.45c0,1.05.08,2.11.09,3.18,0,.76,0,1.52,0,2.29a2.24,2.24,0,0,0,1.92.23C98.33,473,99.92,472.24,99.69,470.16Z" transform="translate(-14.39 -13.89)"/><path class="cls-1" d="M702.66,102.59c-2.46,1.29-7.64.81-7.62-3.26,0-2,2.16-3,4-2.36C701.47,97.82,705.17,101.28,702.66,102.59Z" transform="translate(-14.39 -13.89)"/><path class="cls-1" d="M628.44,131.7c.17-1.75,1-3.1,2.92-2.9,1.6.17,3.13,1.07,3,3a3,3,0,0,1-3.13,2.92C629.57,134.68,628.23,133.78,628.44,131.7Z" transform="translate(-14.39 -13.89)"/><path class="cls-1" d="M720.37,415.31a2.86,2.86,0,0,1-2.92,3.09,2.57,2.57,0,0,1-2.8-2.5,2.88,2.88,0,0,1,2.58-3.33A2.66,2.66,0,0,1,720.37,415.31Z" transform="translate(-14.39 -13.89)"/><path class="cls-1" d="M312.88,438c-1.69.06-3.48-.7-3.6-3-.1-1.94,1.36-2.18,2.77-2.31a3.23,3.23,0,0,1,3.69,2.89C316,437.33,314.27,438,312.88,438Z" transform="translate(-14.39 -13.89)"/><path class="cls-1" d="M655.56,434.23a2.87,2.87,0,0,1-2.87-3.35,2.57,2.57,0,0,1,2.81-2.56,2.9,2.9,0,0,1,3,3A2.69,2.69,0,0,1,655.56,434.23Z" transform="translate(-14.39 -13.89)"/><path class="cls-1" d="M468.24,195.9a3,3,0,0,1-3.09,2.79c-1.53,0-2.49-1.33-2.75-2.76-.3-1.64.45-2.83,2.3-2.75C466.34,193.24,468.27,193.57,468.24,195.9Z" transform="translate(-14.39 -13.89)"/><path class="cls-1" d="M795,192.88c2.16-.07,3.05,1.42,3.14,3.3s-1.34,2.23-2.86,2.3a2.86,2.86,0,0,1-3.29-2.66C791.88,194.05,793.06,192.94,795,192.88Z" transform="translate(-14.39 -13.89)"/><path class="cls-1" d="M95.17,485.74a4.41,4.41,0,0,0-1.26.18c-.22,1.47-.44,2.94-.68,4.41a4.78,4.78,0,0,0,2.29.79,2.54,2.54,0,0,0,2.77-2.55C98.45,486.81,97,485.73,95.17,485.74Z" transform="translate(-14.39 -13.89)"/><path class="cls-1" d="M753.4,452.94a2.54,2.54,0,0,1-2.62,2.64,2.7,2.7,0,0,1-3-2.78c0-1.72.78-3.16,2.75-3A3,3,0,0,1,753.4,452.94Z" transform="translate(-14.39 -13.89)"/><path class="cls-1" d="M47.93,704.73a2.82,2.82,0,0,1,2.67,3.38,2.55,2.55,0,0,1-2.9,2.32c-2.1-.07-2.58-1.42-2.42-3.16A2.48,2.48,0,0,1,47.93,704.73Z" transform="translate(-14.39 -13.89)"/><path class="cls-1" d="M232.34,536c-2,.21-2.8-1.78-2.76-3.44a2.39,2.39,0,0,1,2.25-2.54c1.85,0,2.78,1.11,2.87,3A2.55,2.55,0,0,1,232.34,536Z" transform="translate(-14.39 -13.89)"/><path class="cls-1" d="M745.24,491c-1.62,0-2.76-.69-2.88-2.32a2.86,2.86,0,0,1,2.72-3.21,2.62,2.62,0,0,1,3.19,2.63A2.83,2.83,0,0,1,745.24,491Z" transform="translate(-14.39 -13.89)"/><path class="cls-1" d="M779.85,447.54c.4,2.27-.78,3.19-2.43,3.36a3,3,0,0,1-3.57-3c-.08-1.48,1.37-2.38,2.86-2.53A2.67,2.67,0,0,1,779.85,447.54Z" transform="translate(-14.39 -13.89)"/><path class="cls-1" d="M695.75,348.19c.18,1.57-1.39,2.44-2.89,2.56-2.27.19-3.1-1.63-3.24-3.28s1.51-2.13,3-2.2A3,3,0,0,1,695.75,348.19Z" transform="translate(-14.39 -13.89)"/><path class="cls-1" d="M501,194.42a2.49,2.49,0,0,1,2.55,2.73c-.12,1.6-1.12,3-3.12,2.69a2.54,2.54,0,0,1-2.26-3A2.5,2.5,0,0,1,501,194.42Z" transform="translate(-14.39 -13.89)"/><path class="cls-1" d="M906,170.71c-.71.3-2-1-1.58-1.7.72-1.22,1.2-.64,1.32-1.48a3,3,0,0,1,3.37-2.61,2,2,0,0,1,1.75,2.22c0,2-1.3,2.65-3.12,2.61C907,169.73,907.41,170.12,906,170.71Z" transform="translate(-14.39 -13.89)"/><path class="cls-1" d="M86.23,592A2.74,2.74,0,0,1,89,594.89a2.6,2.6,0,0,1-2.91,2.91,2.33,2.33,0,0,1-2.61-2.58C83.46,593.43,84,591.86,86.23,592Z" transform="translate(-14.39 -13.89)"/><path class="cls-1" d="M406.72,157.54a2.87,2.87,0,0,1-3.07-2.78,2.59,2.59,0,0,1,2.58-2.72,2.52,2.52,0,0,1,3,2.76C409.22,156.28,408.56,157.55,406.72,157.54Z" transform="translate(-14.39 -13.89)"/><path class="cls-1" d="M483.51,191.32a2.77,2.77,0,0,1,3.09,2.3c.44,1.77-1,2.73-2.3,3-1.95.35-2.78-1.17-3-2.9C481.16,192.17,482.07,191.44,483.51,191.32Z" transform="translate(-14.39 -13.89)"/><path class="cls-1" d="M804.68,411.22c0,1.57-.89,2.87-2.6,2.78-1.43-.07-2.78-.62-2.52-2.53.19-1.47.76-2.82,2.46-2.82A2.48,2.48,0,0,1,804.68,411.22Z" transform="translate(-14.39 -13.89)"/><path class="cls-1" d="M942.93,445.5c-.07.93-1.29,1.58-3.17,1.45s-3.29-.86-2.93-2.85c.32-1.76,1.55-3.47,3.57-3.19C942,441.13,943.15,442.48,942.93,445.5Z" transform="translate(-14.39 -13.89)"/><path class="cls-1" d="M957.88,432.36c0,1.58-.89,2.88-2.6,2.79-1.43-.07-2.78-.63-2.52-2.54.2-1.47.76-2.81,2.46-2.81A2.47,2.47,0,0,1,957.88,432.36Z" transform="translate(-14.39 -13.89)"/><path class="cls-1" d="M759.74,503.11c0,1.87-1.28,2.76-3.12,2.79-1.44,0-2.42-.67-2.39-2.13,0-1.89,1.48-2.77,3.09-2.89A2.17,2.17,0,0,1,759.74,503.11Z" transform="translate(-14.39 -13.89)"/><path class="cls-1" d="M258.58,466.11c.28,1.56-1,2.12-2.23,2.24-1.45.14-3-.27-3.06-2a2.71,2.71,0,0,1,2.56-2.78C257.67,463.41,258.32,464.68,258.58,466.11Z" transform="translate(-14.39 -13.89)"/><path class="cls-1" d="M165.54,557.86c.38,1.74-1.12,2.5-2.62,2.68a2.12,2.12,0,0,1-2.47-2,2.6,2.6,0,0,1,2.28-3C164.48,555.16,165.26,556.58,165.54,557.86Z" transform="translate(-14.39 -13.89)"/><path class="cls-1" d="M738.33,396.63c0,1.75-1,3-2.67,2.77a2.55,2.55,0,0,1-2.48-2.8,2.7,2.7,0,0,1,3-2.28A2.19,2.19,0,0,1,738.33,396.63Z" transform="translate(-14.39 -13.89)"/><path class="cls-1" d="M655.2,588.83c.38,2.42-1,3-2.39,3.36a2.1,2.1,0,0,1-2.61-2c-.26-1.77,1.33-2.37,2.6-2.77A1.73,1.73,0,0,1,655.2,588.83Z" transform="translate(-14.39 -13.89)"/><path class="cls-1" d="M164.57,665.23a2.61,2.61,0,0,1-2.51,2.7c-1.73.16-2.56-1-2.52-2.54s.89-2.84,2.46-2.77C163.32,662.67,164.71,663.34,164.57,665.23Z" transform="translate(-14.39 -13.89)"/><path class="cls-1" d="M123.77,622.3a2.42,2.42,0,1,1-.73-4.78A2.39,2.39,0,0,1,126,619.8,2.61,2.61,0,0,1,123.77,622.3Z" transform="translate(-14.39 -13.89)"/><path class="cls-1" d="M528.06,114.52a2.15,2.15,0,0,1,2.42-2.2,2.23,2.23,0,0,1,2.36,2.75,2.31,2.31,0,0,1-2.38,2.3A2.45,2.45,0,0,1,528.06,114.52Z" transform="translate(-14.39 -13.89)"/><path class="cls-1" d="M19.55,630.93a2.66,2.66,0,0,1-2.44,2.81,2.42,2.42,0,0,1-2.7-2.53c-.09-1.34.36-2.79,2.23-2.87A2.68,2.68,0,0,1,19.55,630.93Z" transform="translate(-14.39 -13.89)"/><path class="cls-1" d="M904,72.49c1.48,0,2.77.56,2.85,2.32a2.68,2.68,0,0,1-2.71,3.1,2.38,2.38,0,0,1-2.81-2.35A2.48,2.48,0,0,1,904,72.49Z" transform="translate(-14.39 -13.89)"/><path class="cls-1" d="M815.7,390.25c-2,.32-2.64-1.5-2.44-3.16.17-1.46.87-2.38,2.43-2s2.63,1.23,2.41,2.95A2.65,2.65,0,0,1,815.7,390.25Z" transform="translate(-14.39 -13.89)"/><path class="cls-1" d="M782.83,463.05c-.14,1.64-1.6,2-2.82,2a1.92,1.92,0,0,1-2-2.39c.23-1.11,1.05-2.35,2.55-2C781.75,461,782.94,461.77,782.83,463.05Z" transform="translate(-14.39 -13.89)"/><path class="cls-1" d="M856.82,180.23a2.53,2.53,0,0,1,2.95-2.2c1.68.14,2.33,1.18,2.24,2.8s-1.33,1.87-2.53,1.91C857.88,182.8,856.57,182,856.82,180.23Z" transform="translate(-14.39 -13.89)"/><path class="cls-1" d="M281.67,428.05c.19,1.53-.54,2.65-2.08,2.68s-2.13-1-2.2-2.37a1.81,1.81,0,0,1,1.74-2.14A2.07,2.07,0,0,1,281.67,428.05Z" transform="translate(-14.39 -13.89)"/><path class="cls-1" d="M530.85,223.22c1.46,0,2.36.44,2.44,2,.08,1.78-.79,2.62-2.5,2.58a2.44,2.44,0,0,1-2.58-2.18C528.05,224,529.2,223.26,530.85,223.22Z" transform="translate(-14.39 -13.89)"/><path class="cls-1" d="M63.63,716.88c1.44,0,2.45.64,2.38,2.16s-1.32,1.86-2.54,2-1.88-.73-1.95-1.87A1.94,1.94,0,0,1,63.63,716.88Z" transform="translate(-14.39 -13.89)"/><path class="cls-1" d="M698.47,368.08c-1.79,1.6-4.73.71-5.05-2.35-.09-.94.11-2.26,1.53-2.29C697.54,363.39,700.5,366.27,698.47,368.08Z" transform="translate(-14.39 -13.89)"/><path class="cls-1" d="M524.55,296.73a3.52,3.52,0,0,1-3.75-3.8,3.18,3.18,0,0,1,3.57-3.37c2.42.12,3.47,1.66,3.43,4A2.94,2.94,0,0,1,524.55,296.73Z" transform="translate(-14.39 -13.89)"/><path class="cls-1" d="M465.6,269c.19,2.16-1.58,3.3-3.6,3.54-2.2.26-3.17-1.32-3.34-3.1-.2-2,.73-3.56,3.1-3.67A3.38,3.38,0,0,1,465.6,269Z" transform="translate(-14.39 -13.89)"/><path class="cls-1" d="M478.71,334.15a3,3,0,0,1-3.17-3.49c.18-1.71.73-3.17,2.77-3.13a3.32,3.32,0,0,1,.4,6.62Z" transform="translate(-14.39 -13.89)"/><path class="cls-1" d="M457.44,351.43c1.71,0,3.28.51,3.1,2.73-.16,1.86-1.49,2.3-3.05,2.35-1.79.05-3.23-.66-3.29-2.57C454.13,351.85,455.84,351.39,457.44,351.43Z" transform="translate(-14.39 -13.89)"/><path class="cls-1" d="M441.15,362.57a2.67,2.67,0,0,1-2.71,2.88,2.44,2.44,0,0,1-2.56-2.43,2.74,2.74,0,0,1,2.66-2.84A2.37,2.37,0,0,1,441.15,362.57Z" transform="translate(-14.39 -13.89)"/><path class="cls-1" d="M415.21,309.58c-.27,1.2-1.07,2.54-2.8,2.25a2.23,2.23,0,0,1-2-2.51,2.34,2.34,0,0,1,2.51-2.1C414.29,307.24,415.51,308.3,415.21,309.58Z" transform="translate(-14.39 -13.89)"/><path class="cls-1" d="M469.42,288.65a2.18,2.18,0,0,1-2.35,2.13,2,2,0,0,1-2.23-2.13c.06-1.73,1.52-2,2.74-2.06A1.82,1.82,0,0,1,469.42,288.65Z" transform="translate(-14.39 -13.89)"/><path class="cls-1" d="M542.84,313.05c-.05.7-1,1.19-2.37,1.09s-2.47-.65-2.2-2.14c.24-1.32,1.16-2.6,2.68-2.39C542.14,309.78,543,310.79,542.84,313.05Z" transform="translate(-14.39 -13.89)"/><path class="cls-1" d="M455.34,388.62a2.15,2.15,0,0,1-2.15-2.51,1.92,1.92,0,0,1,2.11-1.92,2.17,2.17,0,0,1,2.25,2.26A2,2,0,0,1,455.34,388.62Z" transform="translate(-14.39 -13.89)"/><path class="cls-1" d="M473.42,356.63a1.9,1.9,0,0,1-2,2,2,2,0,0,1-2.27-2.08c0-1.29.58-2.37,2.06-2.22A2.24,2.24,0,0,1,473.42,356.63Z" transform="translate(-14.39 -13.89)"/><path class="cls-1" d="M493.25,352.59a1.88,1.88,0,0,1-1.81,2.52,2.26,2.26,0,0,1-2.68-2.25c-.07-1.11,1-1.79,2.14-1.91A2,2,0,0,1,493.25,352.59Z" transform="translate(-14.39 -13.89)"/><path class="cls-1" d="M435,256.33c.13,1.18-1,1.83-2.17,1.93-1.71.14-2.33-1.23-2.43-2.47s1.13-1.59,2.22-1.64A2.25,2.25,0,0,1,435,256.33Z" transform="translate(-14.39 -13.89)"/><path class="cls-1" d="M462.12,314.4c0,1.31-.73,2.25-2,2.08a1.92,1.92,0,0,1-1.87-2.1,2,2,0,0,1,2.27-1.71A1.64,1.64,0,0,1,462.12,314.4Z" transform="translate(-14.39 -13.89)"/><path class="cls-1" d="M489.78,313.82c-1.51.24-2-1.13-1.83-2.37.13-1.09.66-1.79,1.83-1.48s2,.91,1.8,2.21A2,2,0,0,1,489.78,313.82Z" transform="translate(-14.39 -13.89)"/><path class="cls-1" d="M519.34,380.06c-.11,1.23-1.2,1.51-2.11,1.5a1.43,1.43,0,0,1-1.5-1.78c.17-.84.79-1.77,1.91-1.49C518.53,378.52,519.42,379.1,519.34,380.06Z" transform="translate(-14.39 -13.89)"/><path class="cls-1" d="M432.23,293c-1.35,1.2-3.55.52-3.79-1.77-.07-.7.08-1.69,1.15-1.72C431.53,289.47,433.75,291.63,432.23,293Z" transform="translate(-14.39 -13.89)"/><path class="cls-1" d="M172.83,487.21a2.53,2.53,0,0,1,2.34,3.06,2.23,2.23,0,0,1-2.66,2c-1.45-.14-2-1.29-1.89-2.69S171.38,487,172.83,487.21Z" transform="translate(-14.39 -13.89)"/><path class="cls-1" d="M567.36,648.68c2.5.15,4.26,1.46,4.12,4.05a3.63,3.63,0,0,1-3.66,3.75c-2.49,0-4.06-1.51-3.82-4C564.18,650.65,565.07,648.55,567.36,648.68Z" transform="translate(-14.39 -13.89)"/><path class="cls-1" d="M577.82,616.05c0,2-1.58,2.55-3.28,2.49a2.78,2.78,0,0,1-2.78-3.11,2.91,2.91,0,0,1,3.33-2.62C577,612.9,577.86,614.24,577.82,616.05Z" transform="translate(-14.39 -13.89)"/><path class="cls-1" d="M620.43,633.26a2.43,2.43,0,0,1-2.84,2.14c-1.32-.11-2.47-.57-2.27-2.13s1.13-3,3.07-2.69A2.2,2.2,0,0,1,620.43,633.26Z" transform="translate(-14.39 -13.89)"/><path class="cls-1" d="M603.87,641.66c0,1.52-1.57,1.21-2.52,1.07a2.72,2.72,0,0,1-2.52-2.77,1.39,1.39,0,0,1,2-1.46C602.35,639,603.83,640.09,603.87,641.66Z" transform="translate(-14.39 -13.89)"/><path class="cls-1" d="M559.44,284c0,1.52-1.57,1.22-2.52,1.08a2.73,2.73,0,0,1-2.52-2.77,1.38,1.38,0,0,1,2-1.46C557.92,281.37,559.4,282.43,559.44,284Z" transform="translate(-14.39 -13.89)"/><path class="cls-1" d="M54,701.5a2,2,0,0,1-2.49-1.69c-.14-1.29.28-2.5,2-2.52,1.18,0,2.21.38,2.38,1.61A2.12,2.12,0,0,1,54,701.5Z" transform="translate(-14.39 -13.89)"/><path class="cls-1" d="M116.82,689.16a2.53,2.53,0,0,1-.5,1.64c-.6,1.1-2.18,2.62-2.65,2-2.73-3.46-7.15,2.5-9.45-1.9a2.33,2.33,0,0,1-.23-1c0-2,2.28-3.53,2.77-3,3.07,3.52,5.94-2.9,8.69.08A4.4,4.4,0,0,1,116.82,689.16Z" transform="translate(-14.39 -13.89)"/><path class="cls-1" d="M64.69,646.66A2.82,2.82,0,0,1,67.36,650a2.55,2.55,0,0,1-2.9,2.32c-2.11-.07-2.58-1.42-2.42-3.16A2.47,2.47,0,0,1,64.69,646.66Z" transform="translate(-14.39 -13.89)"/><path class="cls-1" d="M80.39,658.81c1.44,0,2.44.64,2.38,2.16s-1.32,1.86-2.55,2-1.87-.73-1.94-1.87A1.94,1.94,0,0,1,80.39,658.81Z" transform="translate(-14.39 -13.89)"/><path class="cls-1" d="M70.72,643.43a2,2,0,0,1-2.49-1.69c-.13-1.29.29-2.5,2-2.52,1.18,0,2.21.38,2.38,1.61A2.13,2.13,0,0,1,70.72,643.43Z" transform="translate(-14.39 -13.89)"/><path class="cls-1" d="M212.12,239.05c.46,3.07-1.34,4.83-4.11,4.83-3.33,0-5.14-2.06-5.46-5.16-.3-2.95,1.38-4.54,4.34-4.63C210.59,234,211.76,236.65,212.12,239.05Z" transform="translate(-14.39 -13.89)"/><path class="cls-1" d="M132.88,308.53a2.59,2.59,0,0,1-.51,1.64c-.6,1.1-2.18,2.63-2.65,2-2.73-3.46-7.15,2.5-9.45-1.89a2.23,2.23,0,0,1-.22-1c0-2,2.27-3.52,2.76-3,3.07,3.51,5.94-2.9,8.69.08A4.52,4.52,0,0,1,132.88,308.53Z" transform="translate(-14.39 -13.89)"/><path class="cls-1" d="M208,297.55c-2.73.13-4.69-1.26-4.7-4.19a4.23,4.23,0,0,1,4.61-4.6c2.41.06,4.11,1.85,4.22,4.54C212.25,296.29,210.19,297.45,208,297.55Z" transform="translate(-14.39 -13.89)"/><path class="cls-1" d="M171.25,266c.05,1.94-1.58,3.1-3.25,3.4-2.17.38-3-1.36-3.18-3.23s.83-3.49,2.93-3.48A3.24,3.24,0,0,1,171.25,266Z" transform="translate(-14.39 -13.89)"/><path class="cls-1" d="M145.3,241.61c.14,2.23-1.79,3.36-3.8,3.26a2.5,2.5,0,0,1-2.65-2.68,3.46,3.46,0,0,1,3.33-3.45A3.09,3.09,0,0,1,145.3,241.61Z" transform="translate(-14.39 -13.89)"/><path class="cls-1" d="M197.38,226.54a2.63,2.63,0,0,1-2.51,2.7,2.21,2.21,0,0,1-2.52-2.54c0-1.46.89-2.84,2.46-2.78C196.13,224,197.52,224.65,197.38,226.54Z" transform="translate(-14.39 -13.89)"/><path class="cls-1" d="M74.06,265.06a2.32,2.32,0,0,1-2.81,1.81c-1.54-.37-2.49-1.47-2-3.06a2.23,2.23,0,0,1,2.93-1.54C73.39,262.65,74.48,263.7,74.06,265.06Z" transform="translate(-14.39 -13.89)"/><path class="cls-1" d="M678.61,210a1.86,1.86,0,0,1,2.07-1.92c1.09.09,2.14.53,2.11,1.89a2.22,2.22,0,0,1-2.37,2.31A2.07,2.07,0,0,1,678.61,210Z" transform="translate(-14.39 -13.89)"/><path class="cls-1" d="M442.86,642.62c1.91,3.08-3.5,5.21-6.72,3.85-2-.84-1.73-3-.56-4.54C438.46,638.12,441.5,640.42,442.86,642.62Z" transform="translate(-14.39 -13.89)"/><path class="cls-1" d="M470.9,584.5c.18,2.1-1.35,2.66-3,2.8-2,.18-3.41-.54-3.55-2.81a2.88,2.88,0,0,1,3.15-3.33A3.44,3.44,0,0,1,470.9,584.5Z" transform="translate(-14.39 -13.89)"/><path class="cls-1" d="M435.33,612.11c.2,1.37-1,2-2.13,2.39-1.54.51-2.23-.58-2.47-1.81-.29-1.45.63-2.24,2-2.48A2.07,2.07,0,0,1,435.33,612.11Z" transform="translate(-14.39 -13.89)"/><path class="cls-1" d="M453.85,652.62c.09,1.37-1.14,1.72-2.26,1.71a2,2,0,0,1-2.24-2.3,1.8,1.8,0,0,1,2.09-1.84A2.71,2.71,0,0,1,453.85,652.62Z" transform="translate(-14.39 -13.89)"/><path class="cls-1" d="M451.65,615a1.89,1.89,0,0,1-1.85-2.53,2.23,2.23,0,0,1,2.2-1.91,2.13,2.13,0,0,1,2.19,2.42C454.18,614.6,453.11,615.17,451.65,615Z" transform="translate(-14.39 -13.89)"/><path class="cls-1" d="M688.13,579.67a2.23,2.23,0,0,1-4.42.53,2.23,2.23,0,1,1,4.42-.53Z" transform="translate(-14.39 -13.89)"/><path class="cls-1" d="M642.87,110c-.45,0-1-.81-.73-1.16S643.67,109.91,642.87,110Z" transform="translate(-14.39 -13.89)"/><path class="cls-1" d="M613.2,359.05c-17.81-5.71-17.83-19-9.06-31.48,4.55-6.46,10.88-9.77,18.6-7.73,7.08,1.87,13.61,5.66,14.62,13.87s.33,16.08-8.79,20.37C626.53,355,619.07,360.93,613.2,359.05Z" transform="translate(-14.39 -13.89)"/><path class="cls-1" d="M246,252.57c-6.26-.13-18-.66-18.67-8.79s8.07-15.89,16.72-15.16c9.53.8,28.33,22.68,28,31.11C271.73,269.24,257,252.8,246,252.57Z" transform="translate(-14.39 -13.89)"/><path class="cls-1" d="M411.5,555.4c-6.37,0-11.28-4.77-11.42-13.13-.15-9,5.62-13.73,14-14.73,7.72-.92,15.47,7.06,15.3,14.93C429.25,549.59,422.44,555.49,411.5,555.4Z" transform="translate(-14.39 -13.89)"/><path class="cls-1" d="M884,421.06c6.79.08,13.42,3.45,13.1,11.79-.29,7.59-4.9,14-13.1,14.54-7.11.48-11.94-4.24-12.4-11.47C871.06,427.85,874.53,421,884,421.06Z" transform="translate(-14.39 -13.89)"/><path class="cls-1" d="M268.48,302.75c1.1,7.35,6.64,17.84,0,17.85-8,0-14.35-18.9-15.12-26.34-.73-7.08,3.31-10.91,10.42-11.13C272.66,282.86,267.61,297,268.48,302.75Z" transform="translate(-14.39 -13.89)"/><path class="cls-1" d="M859.19,22.55q-5.18,1.72-10.31,3.53a12.57,12.57,0,0,0,8.72,3.26c6.11.11,10-3.33,10.34-9.6C865,20.65,862.1,21.58,859.19,22.55Z" transform="translate(-14.39 -13.89)"/><path class="cls-1" d="M206.58,530.82c-.36,7-6,10.31-12.72,9.58-6.09-.67-10-4.37-9.17-11.13.76-6.2,4-10.2,10.75-9.84C202.49,519.8,206.92,524.16,206.58,530.82Z" transform="translate(-14.39 -13.89)"/><path class="cls-1" d="M393.27,346.32c.61,6.91-5,10.57-11.52,11.33-7,.82-10.14-4.22-10.69-9.91-.64-6.5,2.36-11.4,9.93-11.77C388.32,335.62,392.7,339.91,393.27,346.32Z" transform="translate(-14.39 -13.89)"/><path class="cls-1" d="M804.84,246.54c-6.54.32-11.26-3-11.28-10.07,0-7.3,4.73-11.2,11.06-11,5.8.15,9.88,4.44,10.13,10.91C815,243.51,810.07,246.29,804.84,246.54Z" transform="translate(-14.39 -13.89)"/><path class="cls-1" d="M453.46,498.77c.23,5.88-3.76,10.18-9.33,10.2s-10.7-2.83-10.78-9.82,3.89-9.81,10.37-9.81C450,489.35,453.24,493.23,453.46,498.77Z" transform="translate(-14.39 -13.89)"/><path class="cls-1" d="M597.67,610.22c-5.9-.17-13.86-14.91-13.1-22.2.57-5.46,2.34-10.12,8.85-10,7.15.13,4.49,8.6,4.25,15C597.49,598,602.8,610.37,597.67,610.22Z" transform="translate(-14.39 -13.89)"/><path class="cls-1" d="M371.7,553.14c.69,6.29-4.62,11-10.71,11-4.92,0-10.11-2.82-10.1-9.06s4-10.15,10.21-10.76S371.15,548.16,371.7,553.14Z" transform="translate(-14.39 -13.89)"/><path class="cls-1" d="M404.15,571.39c5.37.11,9.28,3.43,9.15,9.81s-4.5,9.16-9.81,9.18-10.41-3-10.43-8.85C393,575.18,398,571.26,404.15,571.39Z" transform="translate(-14.39 -13.89)"/><path class="cls-1" d="M449.11,712.73c-.18,4.4-2.65,8.46-8.29,8.53-5.8.07-9.88-3.15-9.52-9.17.28-4.76,2.73-9.13,8.69-8.57C445,704,449.38,706.27,449.11,712.73Z" transform="translate(-14.39 -13.89)"/><path class="cls-1" d="M845.53,472.67c6,.63,9.41,3.34,9.25,8.71-.2,6.14-4.91,9-10.3,8.66-4.67-.26-7.4-4.38-6.94-8.94S839.45,472,845.53,472.67Z" transform="translate(-14.39 -13.89)"/><path class="cls-1" d="M818.08,483c2.29.06,4.39.69,4.14,3.64-.21,2.48-2,3.07-4.06,3.14-2.38.07-4.31-.88-4.39-3.42C813.68,483.56,816,482.94,818.08,483Z" transform="translate(-14.39 -13.89)"/><path class="cls-1" d="M836.57,504.46A2.54,2.54,0,0,1,834,507.1a2.7,2.7,0,0,1-3-2.78c0-1.72.77-3.16,2.75-3A3,3,0,0,1,836.57,504.46Z" transform="translate(-14.39 -13.89)"/><path class="cls-1" d="M865.85,484.54c.4,2.26-.79,3.19-2.43,3.36a3,3,0,0,1-3.57-3c-.09-1.48,1.37-2.38,2.86-2.54A2.68,2.68,0,0,1,865.85,484.54Z" transform="translate(-14.39 -13.89)"/><path class="cls-1" d="M135.22,300.07c.05,4.52-4.74,7.89-9.82,8.55-5.85.77-8.56-2.92-9.07-8-.45-4.4.72-8.48,6.55-8.33C128.41,292.44,135.16,294.57,135.22,300.07Z" transform="translate(-14.39 -13.89)"/><path class="cls-1" d="M401,157.72c5.41.14,9,1.66,8.71,7.66-.22,3.88-1.79,8.55-6.52,7.66-5.44-1-10.76-4.61-11-10.67C391.92,157.51,396.59,157.61,401,157.72Z" transform="translate(-14.39 -13.89)"/><path class="cls-1" d="M619.76,262c.79,5.75-4.33,9.55-9,9.93-5,.41-8.5-3.12-8.78-8.6s2.24-9.06,7.93-9C615.16,254.23,619.17,257.63,619.76,262Z" transform="translate(-14.39 -13.89)"/><path class="cls-1" d="M313.48,249.21c.25,4.87-4.48,6.52-8.69,6.93-4.67.46-8.65-1.66-8.17-6.95.41-4.54,3.92-7.4,8.5-7.83C310.28,240.87,313.23,244.29,313.48,249.21Z" transform="translate(-14.39 -13.89)"/><path class="cls-1" d="M241.42,650.4c5.46,0,8.58,3.2,8.88,7.79.33,5.21-3.67,7.62-8.32,7.3-4.33-.31-8.26-2.32-8.34-7.73S237.1,650.41,241.42,650.4Z" transform="translate(-14.39 -13.89)"/><path class="cls-1" d="M147.54,475.44c.3,6.21-4.14,8.21-8.78,8.17-4.91,0-8.16-2.75-7.88-7.91.3-5.42,3.19-8.61,9.1-8C145.19,468.24,147.37,471.79,147.54,475.44Z" transform="translate(-14.39 -13.89)"/><path class="cls-1" d="M853.27,430.81c.35,5.07-2.21,8.37-6.94,8.55a7.7,7.7,0,0,1-8.32-7.59c-.27-4.72,2.71-8.23,7.31-8.56S852.92,425.87,853.27,430.81Z" transform="translate(-14.39 -13.89)"/><path class="cls-1" d="M176.64,439.55c-9-1.71-11.4-4.71-10.94-10.26.4-4.89,3.55-6.43,7.71-6.3,6.06.2,8,4.81,7.53,9.58C180.58,436.17,178.21,439.85,176.64,439.55Z" transform="translate(-14.39 -13.89)"/><path class="cls-1" d="M719.58,171.8c.11,4.66-3.78,7.45-7.8,8.16-5.2.93-7.29-3.25-7.64-7.74-.36-4.78,2-8.39,7-8.36C715.69,163.9,719.45,166.47,719.58,171.8Z" transform="translate(-14.39 -13.89)"/><path class="cls-1" d="M191.72,556.75c.44,5.06-3.24,6.38-7.33,6.73-4.88.42-8.17-1.31-8.52-6.75s3.15-8,7.56-8S191.31,551.9,191.72,556.75Z" transform="translate(-14.39 -13.89)"/><path class="cls-1" d="M330,487.2c-.89,3.85-3.44,8.14-9,7.21-4.35-.73-6.93-3.87-6.48-8.05s3.76-6.77,8-6.71C327,479.72,330.91,483.1,330,487.2Z" transform="translate(-14.39 -13.89)"/><path class="cls-1" d="M503.49,420.21c-.13,4.86-3.85,6.6-7.52,6.81-4,.22-7.31-2.1-7.15-6.8.18-5.56,4.87-6.51,8.77-6.6C501.05,413.53,503.6,416.19,503.49,420.21Z" transform="translate(-14.39 -13.89)"/><path class="cls-1" d="M934.93,55.83c-.17,2.22-3.1,3.79-7.6,3.49s-7.91-2.08-7-6.85c.77-4.22,3.71-8.34,8.57-7.66C932.68,45.34,935.46,48.57,934.93,55.83Z" transform="translate(-14.39 -13.89)"/><path class="cls-1" d="M210.05,486.26c-4.07.13-8.35-1.7-8.64-7.18-.25-4.66,3.26-5.24,6.64-5.56,5-.47,8.19,2.67,8.86,6.93S213.38,486.14,210.05,486.26Z" transform="translate(-14.39 -13.89)"/><path class="cls-1" d="M130.89,374.44c.34,5.37-4.27,8.08-9.11,7.84-3.68-.18-6.49-2.34-6.35-6.44a8.29,8.29,0,0,1,8-8.27C127.46,367.3,130.67,370.93,130.89,374.44Z" transform="translate(-14.39 -13.89)"/><path class="cls-1" d="M135.46,537.52c-.26,6.39-.93,10.56-6.51,10.69-4.31.1-7-2.17-7.08-6.79s1.16-8.43,6.62-8.63C132.87,532.64,135.59,534.61,135.46,537.52Z" transform="translate(-14.39 -13.89)"/><path class="cls-1" d="M516.28,637.82c.06,4.06-3,6.23-6.29,6.35-3.95.13-7.28-2.16-7.29-6.69,0-4.11,1.86-7.57,6.59-7.09C513.33,630.79,516.21,633.37,516.28,637.82Z" transform="translate(-14.39 -13.89)"/><path class="cls-1" d="M149.56,586.83c3.38-7.14,13.3-3.72,16.23,3.2,1.09,2.57-.23,4.63-3,5.75C155.63,598.59,146.33,593.67,149.56,586.83Z" transform="translate(-14.39 -13.89)"/><path class="cls-1" d="M265.28,641.38c-.14,5.38-2.48,7.38-6.53,7.32-4.32-.07-7.41-1.59-7.23-6.55.14-4,2.53-6.35,6.37-6.16S265.37,637.78,265.28,641.38Z" transform="translate(-14.39 -13.89)"/><path class="cls-1" d="M913.61,42.52c-.09,3.77-2.12,6.91-6.23,6.69-3.44-.18-6.68-1.51-6.06-6.09.48-3.53,1.83-6.75,5.92-6.77C911.1,36.34,913.7,39,913.61,42.52Z" transform="translate(-14.39 -13.89)"/><path class="cls-1" d="M313.32,579.07c-2.51.07-4.1-2-4.14-4.38a3,3,0,0,1,3.18-3.18c2.61.16,4.39,1.69,4.55,4.34C317.05,578.14,315.13,579,313.32,579.07Z" transform="translate(-14.39 -13.89)"/><path class="cls-1" d="M279.78,696.57c-2.16,0-4.54-.73-4.49-3.76,0-2.11,1.29-3.55,3.41-3.32a4.8,4.8,0,0,1,4.59,4.46C283.53,696.48,281.38,696.56,279.78,696.57Z" transform="translate(-14.39 -13.89)"/><path class="cls-1" d="M375.74,589.78a2.81,2.81,0,0,1-3,3.53c-2.44,0-3.76-1.51-4-3.77s1-3.32,3.17-3.39C374.62,586.07,375.48,588,375.74,589.78Z" transform="translate(-14.39 -13.89)"/><path class="cls-1" d="M386.8,702c2-.14,2.64,1.56,2.55,3-.1,1.67-1.08,3.39-3.07,3.37a3.43,3.43,0,0,1-3.55-3.37C382.62,702.33,384.8,702.1,386.8,702Z" transform="translate(-14.39 -13.89)"/><path class="cls-1" d="M358.55,630.78c-2,.1-3.42-.92-3.43-3.06a3.1,3.1,0,0,1,3.37-3.36,3.16,3.16,0,0,1,3.08,3.32A2.83,2.83,0,0,1,358.55,630.78Z" transform="translate(-14.39 -13.89)"/><path class="cls-1" d="M340.77,686.69c-.16-1.81,2-1.88,3.12-1.91,1.92,0,3,1.48,2.87,3.33s-1.6,2-3.09,2.09C341.32,690.26,340.92,688.44,340.77,686.69Z" transform="translate(-14.39 -13.89)"/><path class="cls-1" d="M266.94,561.52c-1.3-.24-2.36-1.1-2-2.7a2.58,2.58,0,0,1,4.87-.53c.54,1,2.68,1.45,2.13,3.19-.45,1.44-2.46,0-3.42,0A8.67,8.67,0,0,1,266.94,561.52Z" transform="translate(-14.39 -13.89)"/><path class="cls-1" d="M287.11,672.52c.13,1.66-1.17,2.41-2.46,2.51a2.25,2.25,0,0,1-2.51-2.31c-.1-1.33.37-2.31,1.87-2.31S287,670.78,287.11,672.52Z" transform="translate(-14.39 -13.89)"/><path class="cls-1" d="M382,654.55c1.39,2.24-2.56,3.8-4.91,2.81-1.46-.61-1.27-2.19-.41-3.32C378.78,651.26,381,652.94,382,654.55Z" transform="translate(-14.39 -13.89)"/><path class="cls-1" d="M353.85,609.21a2.61,2.61,0,0,1-2.38,2.48c-1.58.28-2.22-1-2.32-2.36s.61-2.55,2.14-2.54A2.37,2.37,0,0,1,353.85,609.21Z" transform="translate(-14.39 -13.89)"/><path class="cls-1" d="M350.79,578.9a1.93,1.93,0,0,1-1.84,2,1.62,1.62,0,0,1-1.84-1.86c0-1.06.65-2.08,1.8-2C349.87,577,350.89,577.52,350.79,578.9Z" transform="translate(-14.39 -13.89)"/><path class="cls-1" d="M326.86,605.39c.19,1.07-.54,1.72-1.57,1.84a1.83,1.83,0,0,1-2.15-1.7,1.55,1.55,0,0,1,1.53-1.83A1.9,1.9,0,0,1,326.86,605.39Z" transform="translate(-14.39 -13.89)"/><path class="cls-1" d="M281.61,601.9a1.7,1.7,0,0,1-2.06,1.32,1.72,1.72,0,0,1-1.48-2.24,1.63,1.63,0,0,1,2.14-1.12A1.72,1.72,0,0,1,281.61,601.9Z" transform="translate(-14.39 -13.89)"/><path class="cls-1" d="M554.78,371.69c2-.14,2.63,1.56,2.54,3-.1,1.67-1.08,3.39-3.07,3.37a3.43,3.43,0,0,1-3.55-3.37C550.59,372.05,552.78,371.82,554.78,371.69Z" transform="translate(-14.39 -13.89)"/><path class="cls-1" d="M541.36,337.72c-.16-1.81,2-1.89,3.12-1.91,1.92,0,3,1.47,2.87,3.32s-1.61,2.05-3.09,2.09C541.91,341.28,541.51,339.46,541.36,337.72Z" transform="translate(-14.39 -13.89)"/><path class="cls-1" d="M526.67,333.24a2.39,2.39,0,0,1-2.91,2.42c-1.84-.15-2.3-1.42-2.24-3a2,2,0,0,1,2.56-2.13C525.59,330.77,526.8,331.57,526.67,333.24Z" transform="translate(-14.39 -13.89)"/><path class="cls-1" d="M539.26,398.54a1.54,1.54,0,0,1-1.64,1.84c-.87,0-2-.28-2-1.39a1.88,1.88,0,0,1,1.87-2A1.66,1.66,0,0,1,539.26,398.54Z" transform="translate(-14.39 -13.89)"/><path class="cls-1" d="M553.63,391.71a1.65,1.65,0,0,1-1.83,1.88,1.84,1.84,0,0,1-1.85-2,1.55,1.55,0,0,1,1.77-1.57A2,2,0,0,1,553.63,391.71Z" transform="translate(-14.39 -13.89)"/><path class="cls-1" d="M390.69,238.87c2.08,0,4.3,1,4.19,3.93-.08,2.23-1.21,3.92-3.47,3.88a4.13,4.13,0,0,1-4.29-3.84A3.51,3.51,0,0,1,390.69,238.87Z" transform="translate(-14.39 -13.89)"/><path class="cls-1" d="M356.7,275c.19,2.16-1.57,3.3-3.6,3.54-2.19.26-3.16-1.32-3.34-3.1-.2-2,.74-3.56,3.11-3.68A3.38,3.38,0,0,1,356.7,275Z" transform="translate(-14.39 -13.89)"/><path class="cls-1" d="M346.68,309.57a2.89,2.89,0,0,1-2.91,3.19c-1.76,0-3.34-.89-3.37-3.07s1.22-3.07,3.24-3.07A2.83,2.83,0,0,1,346.68,309.57Z" transform="translate(-14.39 -13.89)"/><path class="cls-1" d="M369.81,340.16a3,3,0,0,1-3.16-3.49c.17-1.7.73-3.16,2.76-3.12a3.24,3.24,0,0,1,3.44,3.53A3.21,3.21,0,0,1,369.81,340.16Z" transform="translate(-14.39 -13.89)"/><path class="cls-1" d="M348.54,357.44c1.71.05,3.29.52,3.1,2.74-.15,1.85-1.48,2.3-3,2.35-1.79.05-3.24-.66-3.3-2.57C345.24,357.87,347,357.41,348.54,357.44Z" transform="translate(-14.39 -13.89)"/><path class="cls-1" d="M332.26,368.59a2.67,2.67,0,0,1-2.71,2.88A2.43,2.43,0,0,1,327,369a2.75,2.75,0,0,1,2.66-2.85A2.38,2.38,0,0,1,332.26,368.59Z" transform="translate(-14.39 -13.89)"/><path class="cls-1" d="M306.32,315.6c-.28,1.2-1.07,2.54-2.81,2.25a2.23,2.23,0,0,1-2-2.52,2.33,2.33,0,0,1,2.51-2.09C305.4,313.26,306.62,314.32,306.32,315.6Z" transform="translate(-14.39 -13.89)"/><path class="cls-1" d="M360.53,294.67a2.17,2.17,0,0,1-2.35,2.12,2,2,0,0,1-2.23-2.12c.05-1.74,1.52-2,2.74-2.06A1.82,1.82,0,0,1,360.53,294.67Z" transform="translate(-14.39 -13.89)"/><path class="cls-1" d="M339.75,334.43a2.14,2.14,0,0,1-2.18,2.32,1.93,1.93,0,0,1-2.11-1.88,2.18,2.18,0,0,1,1.94-2.5A2,2,0,0,1,339.75,334.43Z" transform="translate(-14.39 -13.89)"/><path class="cls-1" d="M346.45,394.64a2.16,2.16,0,0,1-2.16-2.51,1.93,1.93,0,0,1,2.11-1.92,2.18,2.18,0,0,1,2.26,2.26A2,2,0,0,1,346.45,394.64Z" transform="translate(-14.39 -13.89)"/><path class="cls-1" d="M364.52,362.65a1.89,1.89,0,0,1-2,2,2,2,0,0,1-2.28-2.09c0-1.28.58-2.36,2.06-2.21A2.24,2.24,0,0,1,364.52,362.65Z" transform="translate(-14.39 -13.89)"/><path class="cls-1" d="M384.36,358.61a1.88,1.88,0,0,1-1.82,2.51,2.26,2.26,0,0,1-2.68-2.24c-.06-1.12,1-1.79,2.15-1.91A2,2,0,0,1,384.36,358.61Z" transform="translate(-14.39 -13.89)"/><path class="cls-1" d="M326.13,262.35c.14,1.18-1,1.83-2.16,1.92-1.71.15-2.33-1.22-2.43-2.46s1.13-1.59,2.21-1.65A2.25,2.25,0,0,1,326.13,262.35Z" transform="translate(-14.39 -13.89)"/><path class="cls-1" d="M353.23,320.42c0,1.31-.74,2.25-2,2.08a1.91,1.91,0,0,1-1.86-2.1,2,2,0,0,1,2.27-1.71A1.66,1.66,0,0,1,353.23,320.42Z" transform="translate(-14.39 -13.89)"/><path class="cls-1" d="M380.89,319.84c-1.51.24-2-1.13-1.83-2.37s.66-1.79,1.82-1.48,2,.91,1.81,2.2A2,2,0,0,1,380.89,319.84Z" transform="translate(-14.39 -13.89)"/><path class="cls-1" d="M410.45,386.08c-.11,1.23-1.2,1.51-2.12,1.5a1.43,1.43,0,0,1-1.49-1.79c.17-.83.79-1.76,1.91-1.48C409.64,384.54,410.53,385.12,410.45,386.08Z" transform="translate(-14.39 -13.89)"/><path class="cls-1" d="M323.33,299c-1.34,1.2-3.55.53-3.78-1.76-.07-.7.07-1.7,1.14-1.72C322.64,295.49,324.85,297.65,323.33,299Z" transform="translate(-14.39 -13.89)"/><path class="cls-1" d="M445.88,377.71c2-.14,2.64,1.56,2.55,3-.1,1.67-1.08,3.39-3.07,3.37a3.43,3.43,0,0,1-3.55-3.37C441.7,378.07,443.88,377.84,445.88,377.71Z" transform="translate(-14.39 -13.89)"/><path class="cls-1" d="M432.46,343.74c-.15-1.82,2-1.89,3.12-1.91,1.92,0,3,1.47,2.88,3.32s-1.61,2.05-3.09,2.09C433,347.3,432.61,345.48,432.46,343.74Z" transform="translate(-14.39 -13.89)"/><path class="cls-1" d="M444.74,397.73a1.66,1.66,0,0,1-1.84,1.88,1.85,1.85,0,0,1-1.85-2,1.55,1.55,0,0,1,1.78-1.57A2,2,0,0,1,444.74,397.73Z" transform="translate(-14.39 -13.89)"/><path class="cls-1" d="M789.85,174.37c2.08,0,4.3,1,4.19,3.94-.08,2.22-1.2,3.91-3.46,3.88a4.12,4.12,0,0,1-4.29-3.84A3.51,3.51,0,0,1,789.85,174.37Z" transform="translate(-14.39 -13.89)"/><path class="cls-1" d="M814.82,238.26a3.53,3.53,0,0,1-3.75-3.81,3.17,3.17,0,0,1,3.57-3.36c2.42.11,3.47,1.65,3.43,4A3,3,0,0,1,814.82,238.26Z" transform="translate(-14.39 -13.89)"/><path class="cls-1" d="M708.46,209.89c.19,2.16-1.58,3.3-3.6,3.54-2.2.26-3.17-1.32-3.34-3.09-.2-2,.73-3.57,3.1-3.68A3.38,3.38,0,0,1,708.46,209.89Z" transform="translate(-14.39 -13.89)"/><path class="cls-1" d="M721.57,275.07a3,3,0,0,1-3.17-3.49c.18-1.71.73-3.16,2.77-3.13a3.32,3.32,0,0,1,.4,6.62Z" transform="translate(-14.39 -13.89)"/><path class="cls-1" d="M684,303.49a2.67,2.67,0,0,1-2.71,2.88,2.43,2.43,0,0,1-2.56-2.43,2.74,2.74,0,0,1,2.66-2.84A2.38,2.38,0,0,1,684,303.49Z" transform="translate(-14.39 -13.89)"/><path class="cls-1" d="M658.07,250.5c-.27,1.2-1.07,2.54-2.8,2.25a2.23,2.23,0,0,1-2-2.51,2.35,2.35,0,0,1,2.51-2.1C657.16,248.16,658.37,249.22,658.07,250.5Z" transform="translate(-14.39 -13.89)"/><path class="cls-1" d="M712.28,229.57a2.18,2.18,0,0,1-2.35,2.13,2,2,0,0,1-2.23-2.12c.06-1.74,1.52-2,2.74-2.07A1.82,1.82,0,0,1,712.28,229.57Z" transform="translate(-14.39 -13.89)"/><path class="cls-1" d="M833.11,254.58c-.05.69-1,1.18-2.37,1.09s-2.47-.65-2.2-2.14c.24-1.32,1.16-2.61,2.68-2.4C832.41,251.3,833.28,252.31,833.11,254.58Z" transform="translate(-14.39 -13.89)"/><path class="cls-1" d="M698.2,329.55a2.16,2.16,0,0,1-2.15-2.52,1.93,1.93,0,0,1,2.11-1.92,2.18,2.18,0,0,1,2.25,2.27A2,2,0,0,1,698.2,329.55Z" transform="translate(-14.39 -13.89)"/><path class="cls-1" d="M716.28,297.55a1.92,1.92,0,0,1-2,2,2,2,0,0,1-2.27-2.09c0-1.29.58-2.37,2.06-2.22A2.25,2.25,0,0,1,716.28,297.55Z" transform="translate(-14.39 -13.89)"/><path class="cls-1" d="M736.12,293.51A1.89,1.89,0,0,1,734.3,296a2.25,2.25,0,0,1-2.68-2.25c-.07-1.11,1-1.79,2.14-1.9A2,2,0,0,1,736.12,293.51Z" transform="translate(-14.39 -13.89)"/><path class="cls-1" d="M705,255.32c0,1.32-.73,2.25-2,2.08a1.91,1.91,0,0,1-1.87-2.1,2,2,0,0,1,2.27-1.71A1.65,1.65,0,0,1,705,255.32Z" transform="translate(-14.39 -13.89)"/><path class="cls-1" d="M41,301.68c.13,1.38-1,2.12-2.31,2.27s-2-.85-2.15-2a1.93,1.93,0,0,1,2-2.36A2.16,2.16,0,0,1,41,301.68Z" transform="translate(-14.39 -13.89)"/><path class="cls-1" d="M34.59,329.84a1.94,1.94,0,0,1-2-2.25c.11-1.1.47-2,1.78-2a2.09,2.09,0,0,1,2.21,2.27A2.06,2.06,0,0,1,34.59,329.84Z" transform="translate(-14.39 -13.89)"/><path class="cls-1" d="M33.87,343.82a1.21,1.21,0,0,1-1.17,1.62A1.45,1.45,0,0,1,31,344c0-.72.66-1.15,1.38-1.23A1.29,1.29,0,0,1,33.87,343.82Z" transform="translate(-14.39 -13.89)"/><path class="cls-1" d="M17.25,302.74c.82,0,1.58.25,1.49,1.32-.07.9-.71,1.11-1.47,1.13s-1.56-.31-1.58-1.23S16.48,302.73,17.25,302.74Z" transform="translate(-14.39 -13.89)"/><path class="cls-1" d="M46.24,285c1.1,0,2.11.33,2,1.75-.1,1.2-.95,1.49-2,1.52s-2.08-.43-2.12-1.65S45.21,284.94,46.24,285Z" transform="translate(-14.39 -13.89)"/><path class="cls-1" d="M35.55,272.81c0,.84-.47,1.44-1.29,1.33a1.23,1.23,0,0,1-1.2-1.35,1.31,1.31,0,0,1,1.46-1.1A1.07,1.07,0,0,1,35.55,272.81Z" transform="translate(-14.39 -13.89)"/><path class="cls-1" d="M54.32,255.75c.82,0,1.58.25,1.49,1.31-.07.9-.71,1.11-1.46,1.14s-1.56-.32-1.59-1.24S53.55,255.73,54.32,255.75Z" transform="translate(-14.39 -13.89)"/><path class="cls-1" d="M52.75,342.76a1,1,0,0,1-1-1.22.92.92,0,0,1,1-.92,1,1,0,0,1,1.09,1.09A1,1,0,0,1,52.75,342.76Z" transform="translate(-14.39 -13.89)"/><path class="cls-1" d="M675.09,233.92c-1.35,1.2-3.55.53-3.79-1.77-.07-.7.08-1.69,1.15-1.71C674.39,230.4,676.61,232.56,675.09,233.92Z" transform="translate(-14.39 -13.89)"/><path class="cls-1" d="M849.71,225.52c0,1.53-1.56,1.22-2.52,1.08a2.72,2.72,0,0,1-2.52-2.77,1.39,1.39,0,0,1,2-1.46C848.19,222.9,849.67,224,849.71,225.52Z" transform="translate(-14.39 -13.89)"/><path class="cls-1" d="M876.84,317.42c2-.14,2.64,1.56,2.55,3-.1,1.66-1.08,3.38-3.07,3.36a3.43,3.43,0,0,1-3.55-3.37C872.66,317.78,874.84,317.55,876.84,317.42Z" transform="translate(-14.39 -13.89)"/><path class="cls-1" d="M831.63,279.24c-.16-1.81,2-1.89,3.12-1.91,1.92,0,3,1.48,2.87,3.33s-1.61,2-3.09,2.08C832.18,282.81,831.78,281,831.63,279.24Z" transform="translate(-14.39 -13.89)"/><path class="cls-1" d="M816.94,274.77a2.38,2.38,0,0,1-2.91,2.41c-1.83-.14-2.3-1.41-2.23-3a2,2,0,0,1,2.55-2.14C815.87,272.29,817.07,273.09,816.94,274.77Z" transform="translate(-14.39 -13.89)"/><path class="cls-1" d="M843.9,333.24a1.65,1.65,0,0,1-1.83,1.88,1.85,1.85,0,0,1-1.85-2,1.55,1.55,0,0,1,1.77-1.58A2,2,0,0,1,843.9,333.24Z" transform="translate(-14.39 -13.89)"/><path class="cls-1" d="M65.12,164.62c.29,1.59,1.26,2.9,3.27,2.67a4,4,0,0,0,3.41-2.12Z" transform="translate(-14.39 -13.89)"/><path class="cls-1" d="M62,198.33a2.91,2.91,0,0,1-2.92,3.19c-1.76,0-3.34-.89-3.37-3.07s1.22-3.07,3.24-3.07A2.84,2.84,0,0,1,62,198.33Z" transform="translate(-14.39 -13.89)"/><path class="cls-1" d="M75.82,183.43a2.17,2.17,0,0,1-2.35,2.12,2,2,0,0,1-2.23-2.12c.06-1.74,1.52-2,2.74-2.06A1.82,1.82,0,0,1,75.82,183.43Z" transform="translate(-14.39 -13.89)"/><path class="cls-1" d="M68.52,209.18c0,1.31-.73,2.25-2,2.08a1.92,1.92,0,0,1-1.87-2.1,2,2,0,0,1,2.27-1.71A1.64,1.64,0,0,1,68.52,209.18Z" transform="translate(-14.39 -13.89)"/><path class="cls-1" d="M96.18,208.6c-1.51.24-2-1.13-1.83-2.37s.66-1.79,1.83-1.48,2,.91,1.8,2.2A2,2,0,0,1,96.18,208.6Z" transform="translate(-14.39 -13.89)"/><path class="cls-1" d="M193.51,185.29c-.11,1.23-1.21,1.51-2.12,1.5a1.44,1.44,0,0,1-1.5-1.78c.18-.84.8-1.77,1.92-1.48C192.7,183.75,193.59,184.33,193.51,185.29Z" transform="translate(-14.39 -13.89)"/><path class="cls-1" d="M228.94,176.92c2-.14,2.64,1.56,2.55,3-.1,1.67-1.08,3.39-3.07,3.37a3.43,3.43,0,0,1-3.55-3.37C224.76,177.28,226.94,177.05,228.94,176.92Z" transform="translate(-14.39 -13.89)"/><path class="cls-1" d="M227.8,196.94a1.66,1.66,0,0,1-1.84,1.88,1.85,1.85,0,0,1-1.85-2,1.55,1.55,0,0,1,1.77-1.57A2,2,0,0,1,227.8,196.94Z" transform="translate(-14.39 -13.89)"/><path class="cls-1" d="M331.19,582.26c1.05,0,1.78.47,1.74,1.58s-1,1.36-1.86,1.43-1.37-.53-1.42-1.36A1.42,1.42,0,0,1,331.19,582.26Z" transform="translate(-14.39 -13.89)"/><path class="cls-1" d="M218.11,685.13c.07,1-.84,1.25-1.65,1.25a1.48,1.48,0,0,1-1.63-1.69,1.31,1.31,0,0,1,1.52-1.34A2,2,0,0,1,218.11,685.13Z" transform="translate(-14.39 -13.89)"/><path class="cls-1" d="M553.7,476.24c-2.68-.12-3.39-1.92-3.27-3.81a2.18,2.18,0,0,1,2.89-2.15c2.21.49,3.87,1.62,3.57,4.12C556.63,476.5,554.82,476.29,553.7,476.24Z" transform="translate(-14.39 -13.89)"/><path class="cls-1" d="M588.74,448.51c.18-1.81,2.3-1.49,3.42-1.3,1.89.32,2.64,2,2.2,3.81s-2,1.71-3.42,1.47C588.61,452.11,588.56,450.25,588.74,448.51Z" transform="translate(-14.39 -13.89)"/><path class="cls-1" d="M587.07,406.16c-.15,1.53-1.33,1.72-2.57,1.6-1.48-.16-2.37-.86-2.17-2.51a2.12,2.12,0,0,1,2.72-2A2.52,2.52,0,0,1,587.07,406.16Z" transform="translate(-14.39 -13.89)"/><path class="cls-1" d="M623.48,596.19a1.53,1.53,0,0,1-2,1.5c-.87-.16-1.88-.63-1.76-1.74a1.88,1.88,0,0,1,2.21-1.66A1.67,1.67,0,0,1,623.48,596.19Z" transform="translate(-14.39 -13.89)"/><path class="cls-1" d="M642.24,473.37a1.65,1.65,0,0,1-2.1,1.57,1.85,1.85,0,0,1-1.52-2.26,1.54,1.54,0,0,1,2-1.28A2,2,0,0,1,642.24,473.37Z" transform="translate(-14.39 -13.89)"/><path class="cls-1" d="M620.1,613a1.66,1.66,0,0,1-2.1,1.58,1.85,1.85,0,0,1-1.52-2.27,1.54,1.54,0,0,1,2-1.28A2,2,0,0,1,620.1,613Z" transform="translate(-14.39 -13.89)"/><path class="cls-1" d="M569.1,425.46a1.37,1.37,0,0,1-1-2.06,1.63,1.63,0,0,1,1.83-1.08,1.56,1.56,0,0,1,1.25,2C571,425.49,570.13,425.75,569.1,425.46Z" transform="translate(-14.39 -13.89)"/><path class="cls-1" d="M543,494c-2.38-.76-2.79-4.18-2.14-6.42a4.83,4.83,0,0,1,5.79-3.34c2.14.49,3.94,2.61,2.85,4.88C548.29,491.56,546,495,543,494Z" transform="translate(-14.39 -13.89)"/><path class="cls-1" d="M255.93,338.27c-.28,3.73-2.29,6.15-6,6.48-4.16.36-6.14-2.47-6.05-6.11.09-3.48,2.14-6.81,5.91-6.66C252.92,332.11,256.27,333.72,255.93,338.27Z" transform="translate(-14.39 -13.89)"/><path class="cls-1" d="M168.79,356.73c.63,3.5-1.77,5.65-5.17,6-4.08.48-6.44-1.94-7.05-5.59-.58-3.49,1.73-5.6,5-6C165.61,350.69,168.15,353.25,168.79,356.73Z" transform="translate(-14.39 -13.89)"/><path class="cls-1" d="M533.6,448.36c-4.83.78-6.35-3.6-5.86-7.59.42-3.49,2.11-5.71,5.84-4.74,3.45.9,6.32,2.94,5.78,7.07C538.89,446.65,535.87,448,533.6,448.36Z" transform="translate(-14.39 -13.89)"/><path class="cls-1" d="M501.34,477.25c2-.13,2.64,1.56,2.55,3-.1,1.66-1.08,3.38-3.07,3.36a3.43,3.43,0,0,1-3.55-3.37C497.16,477.62,499.34,477.39,501.34,477.25Z" transform="translate(-14.39 -13.89)"/><path class="cls-1" d="M485.83,504.1a1.53,1.53,0,0,1-1.64,1.84c-.88,0-2-.27-2.05-1.39a1.87,1.87,0,0,1,1.86-2A1.68,1.68,0,0,1,485.83,504.1Z" transform="translate(-14.39 -13.89)"/><path class="cls-1" d="M500.2,497.28a1.66,1.66,0,0,1-1.84,1.88,1.84,1.84,0,0,1-1.84-2,1.54,1.54,0,0,1,1.77-1.58A2,2,0,0,1,500.2,497.28Z" transform="translate(-14.39 -13.89)"/><path class="cls-1" d="M542.17,590c2,.24,2.3,2,1.94,3.42-.41,1.62-1.69,3.13-3.64,2.74a3.42,3.42,0,0,1-2.86-4C538,589.53,540.18,589.71,542.17,590Z" transform="translate(-14.39 -13.89)"/><path class="cls-1" d="M500.27,581.8c-2.68-.12-3.4-1.92-3.27-3.81a2.19,2.19,0,0,1,2.89-2.15c2.21.49,3.87,1.63,3.56,4.12C503.2,582.07,501.39,581.86,500.27,581.8Z" transform="translate(-14.39 -13.89)"/><path class="cls-1" d="M535.31,554.07c.18-1.81,2.3-1.48,3.42-1.29,1.89.32,2.64,2,2.2,3.8s-2,1.71-3.42,1.47C535.18,557.68,535.13,555.81,535.31,554.07Z" transform="translate(-14.39 -13.89)"/><path class="cls-1" d="M521.71,546.94a2.39,2.39,0,0,1-3.31,1.83c-1.77-.48-2-1.82-1.64-3.33a2,2,0,0,1,2.9-1.62C521.11,544.31,522.15,545.32,521.71,546.94Z" transform="translate(-14.39 -13.89)"/><path class="cls-1" d="M533.64,511.72c-.16,1.54-1.33,1.73-2.57,1.6-1.49-.15-2.37-.86-2.17-2.5a2.11,2.11,0,0,1,2.72-2A2.51,2.51,0,0,1,533.64,511.72Z" transform="translate(-14.39 -13.89)"/><path class="cls-1" d="M521.93,613.44a1.54,1.54,0,0,1-2,1.5c-.86-.16-1.88-.64-1.75-1.74a1.86,1.86,0,0,1,2.21-1.66A1.67,1.67,0,0,1,521.93,613.44Z" transform="translate(-14.39 -13.89)"/><path class="cls-1" d="M515.67,531a1.38,1.38,0,0,1-1-2.07,1.6,1.6,0,0,1,1.83-1.07,1.56,1.56,0,0,1,1.25,2C517.55,531.05,516.7,531.32,515.67,531Z" transform="translate(-14.39 -13.89)"/><path class="cls-1" d="M611.33,553.87a1.38,1.38,0,0,1-1-2.07,1.61,1.61,0,0,1,1.83-1.07,1.56,1.56,0,0,1,1.25,2C613.21,553.89,612.36,554.16,611.33,553.87Z" transform="translate(-14.39 -13.89)"/><path class="cls-1" d="M594,627.16a1.38,1.38,0,0,1-1-2.07,1.64,1.64,0,0,1,1.84-1.07,1.56,1.56,0,0,1,1.24,2C595.87,627.19,595,627.45,594,627.16Z" transform="translate(-14.39 -13.89)"/><path class="cls-1" d="M489.53,599.58c-2.38-.75-2.79-4.17-2.14-6.42a4.84,4.84,0,0,1,5.79-3.34c2.13.5,3.94,2.61,2.85,4.88C494.86,597.13,492.52,600.54,489.53,599.58Z" transform="translate(-14.39 -13.89)"/><path class="cls-1" d="M480.17,553.92c-4.83.78-6.35-3.6-5.87-7.58.43-3.5,2.11-5.72,5.85-4.74,3.45.89,6.32,2.93,5.78,7.06C485.46,552.22,482.44,553.56,480.17,553.92Z" transform="translate(-14.39 -13.89)"/><path class="cls-1" d="M925,265.14a1.53,1.53,0,0,1-1.64,1.84c-.87,0-2-.27-2.05-1.38a1.87,1.87,0,0,1,1.87-2C924.29,263.43,924.81,264.29,925,265.14Z" transform="translate(-14.39 -13.89)"/><path class="cls-1" d="M939.34,258.32a1.66,1.66,0,0,1-1.83,1.88,1.84,1.84,0,0,1-1.85-2,1.54,1.54,0,0,1,1.77-1.57A2,2,0,0,1,939.34,258.32Z" transform="translate(-14.39 -13.89)"/><path class="cls-1" d="M933.9,350.39c2,.24,2.3,2,1.94,3.42-.41,1.62-1.69,3.13-3.64,2.74a3.42,3.42,0,0,1-2.86-4C929.72,350,931.91,350.15,933.9,350.39Z" transform="translate(-14.39 -13.89)"/><path class="cls-1" d="M939.41,342.85c-2.68-.12-3.39-1.93-3.27-3.81a2.19,2.19,0,0,1,2.89-2.16c2.21.49,3.87,1.63,3.57,4.13C942.34,343.11,940.53,342.9,939.41,342.85Z" transform="translate(-14.39 -13.89)"/><path class="cls-1" d="M927,314.51c.18-1.81,2.3-1.48,3.42-1.29,1.89.32,2.64,2,2.2,3.8s-2,1.71-3.42,1.47C926.91,318.12,926.86,316.25,927,314.51Z" transform="translate(-14.39 -13.89)"/><path class="cls-1" d="M960.86,308a2.4,2.4,0,0,1-3.32,1.83c-1.77-.48-2-1.82-1.64-3.32a2,2,0,0,1,2.9-1.63C960.26,305.35,961.29,306.36,960.86,308Z" transform="translate(-14.39 -13.89)"/><path class="cls-1" d="M925.37,272.16c-.15,1.54-1.33,1.73-2.57,1.6-1.49-.15-2.37-.86-2.17-2.5a2.11,2.11,0,0,1,2.72-2A2.51,2.51,0,0,1,925.37,272.16Z" transform="translate(-14.39 -13.89)"/><path class="cls-1" d="M901.93,374.07a1.54,1.54,0,0,1-1.95,1.5c-.87-.16-1.88-.64-1.76-1.75a1.87,1.87,0,0,1,2.21-1.65A1.67,1.67,0,0,1,901.93,374.07Z" transform="translate(-14.39 -13.89)"/><path class="cls-1" d="M954.81,292.07a1.38,1.38,0,0,1-1-2.07,1.62,1.62,0,0,1,1.83-1.07,1.56,1.56,0,0,1,1.25,2C956.69,292.09,955.84,292.36,954.81,292.07Z" transform="translate(-14.39 -13.89)"/><path class="cls-1" d="M928.67,360.63c-2.38-.76-2.79-4.18-2.14-6.43a4.84,4.84,0,0,1,5.79-3.33c2.14.49,3.94,2.6,2.85,4.87C934,358.17,931.66,361.58,928.67,360.63Z" transform="translate(-14.39 -13.89)"/><path class="cls-1" d="M873.52,277.88c-4.83.78-6.34-3.59-5.86-7.58.42-3.5,2.11-5.72,5.85-4.74,3.44.9,6.32,2.94,5.77,7.06C878.81,276.18,875.79,277.52,873.52,277.88Z" transform="translate(-14.39 -13.89)"/><path class="cls-1" d="M216.42,595.52c.42,4.21-1.87,6.84-5.67,7.2s-6.21-2.56-6.83-5.86c-.75-4,2.15-6.09,5.74-6.5C213.48,589.93,216.08,592.07,216.42,595.52Z" transform="translate(-14.39 -13.89)"/><path class="cls-1" d="M593.93,664l10.67-4.41c-2.08-2.25-4.27-4.1-5.49-4.41-3.59-.9-5.57,2.08-6.12,4.74A4.69,4.69,0,0,0,593.93,664Z" transform="translate(-14.39 -13.89)"/><path class="cls-1" d="M135.13,462.39c.45,3.66-1.3,6.36-5,6.42s-5.13-2.28-5.28-5.67c-.13-2.95,1.1-4.79,4.16-5.15C132.69,457.56,134.78,459.6,135.13,462.39Z" transform="translate(-14.39 -13.89)"/><path class="cls-1" d="M351.36,263.34c-2.84-.34-6.3-.55-6.47-4.66-.18-4.47,3.57-5.64,6.68-6.06,3.34-.46,5.61,2.43,5.67,5.48A5,5,0,0,1,351.36,263.34Z" transform="translate(-14.39 -13.89)"/><path class="cls-1" d="M67.62,577c-.27,1.2-1.07,2.54-2.8,2.25a2.24,2.24,0,0,1-2-2.52,2.33,2.33,0,0,1,2.51-2.09C66.7,574.69,67.92,575.75,67.62,577Z" transform="translate(-14.39 -13.89)"/><path class="cls-1" d="M85.06,521.59a3.7,3.7,0,0,0-1.42.33c-.25.53-.51,1.05-.77,1.58.17,1.16.81,2.34,2.4,2.2,1.12-.09,2.3-.75,2.17-1.92A2.26,2.26,0,0,0,85.06,521.59Z" transform="translate(-14.39 -13.89)"/><path class="cls-1" d="M84.63,560.44c-1.34,1.2-3.54.53-3.78-1.76-.07-.71.08-1.7,1.15-1.72C83.94,556.92,86.16,559.08,84.63,560.44Z" transform="translate(-14.39 -13.89)"/><path class="cls-1" d="M68.07,570.2a3.53,3.53,0,0,1-3.76-3.81A3.18,3.18,0,0,1,67.89,563c2.41.11,3.47,1.65,3.43,4A3,3,0,0,1,68.07,570.2Z" transform="translate(-14.39 -13.89)"/><path class="cls-1" d="M33.3,587.28c-1.51.25-2-1.12-1.83-2.37.13-1.09.65-1.78,1.82-1.48s2,.92,1.81,2.21A2,2,0,0,1,33.3,587.28Z" transform="translate(-14.39 -13.89)"/><path class="cls-1" d="M156.17,182.35c.19,2.15-1.57,3.3-3.6,3.54-2.19.25-3.16-1.32-3.34-3.1-.19-2,.74-3.56,3.11-3.68A3.37,3.37,0,0,1,156.17,182.35Z" transform="translate(-14.39 -13.89)"/><path class="cls-1" d="M146.15,216.93a2.88,2.88,0,0,1-2.91,3.18c-1.76,0-3.34-.88-3.37-3.06s1.22-3.07,3.24-3.07A2.82,2.82,0,0,1,146.15,216.93Z" transform="translate(-14.39 -13.89)"/><path class="cls-1" d="M148,264.8c1.72,0,3.29.52,3.1,2.73-.15,1.86-1.48,2.31-3,2.35-1.79.06-3.24-.66-3.29-2.56C144.71,265.23,146.42,264.76,148,264.8Z" transform="translate(-14.39 -13.89)"/><path class="cls-1" d="M131.73,276a2.67,2.67,0,0,1-2.71,2.88,2.43,2.43,0,0,1-2.56-2.43,2.74,2.74,0,0,1,2.66-2.85A2.38,2.38,0,0,1,131.73,276Z" transform="translate(-14.39 -13.89)"/><path class="cls-1" d="M105.79,223c-.27,1.21-1.07,2.55-2.81,2.26a2.24,2.24,0,0,1-2-2.52,2.33,2.33,0,0,1,2.51-2.09C104.87,220.62,106.09,221.67,105.79,223Z" transform="translate(-14.39 -13.89)"/><path class="cls-1" d="M160,202a2.17,2.17,0,0,1-2.35,2.12,2,2,0,0,1-2.23-2.12c.05-1.74,1.52-2,2.74-2.06A1.82,1.82,0,0,1,160,202Z" transform="translate(-14.39 -13.89)"/><path class="cls-1" d="M139.22,241.79A2.13,2.13,0,0,1,137,244.1a1.91,1.91,0,0,1-2.1-1.87,2.17,2.17,0,0,1,1.94-2.5A2,2,0,0,1,139.22,241.79Z" transform="translate(-14.39 -13.89)"/><path class="cls-1" d="M145.92,302a2.16,2.16,0,0,1-2.16-2.52,1.93,1.93,0,0,1,2.11-1.91,2.17,2.17,0,0,1,2.26,2.26A2,2,0,0,1,145.92,302Z" transform="translate(-14.39 -13.89)"/><path class="cls-1" d="M164,270a1.91,1.91,0,0,1-2,2,2,2,0,0,1-2.28-2.09c0-1.28.58-2.36,2.06-2.21A2.25,2.25,0,0,1,164,270Z" transform="translate(-14.39 -13.89)"/><path class="cls-1" d="M152.7,227.78c0,1.31-.73,2.25-2,2.08a1.92,1.92,0,0,1-1.87-2.1,2,2,0,0,1,2.27-1.71A1.65,1.65,0,0,1,152.7,227.78Z" transform="translate(-14.39 -13.89)"/><path class="cls-1" d="M122.8,206.37c-1.34,1.2-3.54.53-3.78-1.76-.07-.71.08-1.7,1.15-1.72C122.11,202.85,124.33,205,122.8,206.37Z" transform="translate(-14.39 -13.89)"/><path class="cls-1" d="M238.31,395.41c3.47,0,5.88,1.55,5.73,5.19s-3.19,4.47-6.12,4.72-4.51-1.75-4.67-4.49C233,397.29,235.13,395.44,238.31,395.41Z" transform="translate(-14.39 -13.89)"/><path class="cls-1" d="M384.42,434.12c-4.3,3.85-11.36,1.69-12.11-5.64-.23-2.26.25-5.43,3.67-5.51C382.2,422.84,389.3,429.76,384.42,434.12Z" transform="translate(-14.39 -13.89)"/><path class="cls-1" d="M182.19,498c3.26.19,5.62,2,5.53,5.35a5.37,5.37,0,0,1-5.62,5.4c-3.51,0-4.93-2.85-5.26-5.81C176.42,499.26,178.83,497.82,182.19,498Z" transform="translate(-14.39 -13.89)"/><path class="cls-1" d="M432.19,475.37c.29,3.62-1.7,5.53-5.3,5.56-2.88,0-5-1.35-5.31-4.29-.4-3.35,1-5.92,4.61-6.28S431.9,471.85,432.19,475.37Z" transform="translate(-14.39 -13.89)"/></svg>